<svg xmlns="http://www.w3.org/2000/svg" viewBox="0 0 1020 495"><rect width="1020" height="495" fill="#06110d"/><line x1="0" y1="99" x2="1020" y2="99" stroke="rgba(180,240,220,0.05)" stroke-width="1"/><line x1="0" y1="198" x2="1020" y2="198" stroke="rgba(180,240,220,0.05)" stroke-width="1"/><line x1="0" y1="297" x2="1020" y2="297" stroke="rgba(180,240,220,0.05)" stroke-width="1"/><line x1="0" y1="396" x2="1020" y2="396" stroke="rgba(180,240,220,0.05)" stroke-width="1"/><line x1="0" y1="262.8" x2="1020" y2="262.8" stroke="rgba(53,226,194,0.35)" stroke-width="1.5" stroke-dasharray="7 7"/><polyline fill="none" stroke="rgba(53,226,194,0.6)" stroke-width="1.8" points="0.0,337.6 9.3,343.7 18.5,348.1 27.8,345.1 37.1,334.5 46.4,337.6 55.6,333.2 64.9,317.6 74.2,309.6 83.5,293.5 92.7,278.5 102.0,269.9 111.3,279.9 120.5,266.9 129.8,272.5 139.1,245.5 148.4,265.9 157.6,259.2 166.9,263.4 176.2,263.9 185.5,266.9 194.7,282.4 204.0,285.8 213.3,283.7 222.5,292.6 231.8,291.1 241.1,299.0 250.4,275.6 259.6,280.3 268.9,301.2 278.2,304.5 287.5,290.0 296.7,290.2 306.0,303.4 315.3,305.5 324.5,304.2 333.8,283.2 343.1,288.6 352.4,281.3 361.6,304.6 370.9,304.4 380.2,305.2 389.5,300.9 398.7,326.3 408.0,307.9 417.3,302.7 426.5,289.5 435.8,283.8 445.1,291.8 454.4,298.8 463.6,309.3 472.9,325.1 482.2,319.1 491.5,309.8 500.7,299.4 510.0,283.4 519.3,307.2 528.5,318.2 537.8,317.3 547.1,316.8 556.4,312.9 565.6,324.7 574.9,311.5 584.2,317.6 593.5,313.7 602.7,295.4 612.0,297.0 621.3,289.1 630.5,286.5 639.8,270.6 649.1,247.2 658.4,239.8 667.6,225.1 676.9,227.0 686.2,221.1 695.5,195.8 704.7,179.1 714.0,160.8 723.3,171.3 732.5,167.6 741.8,142.7 751.1,151.6 760.4,156.9 769.6,171.6 778.9,173.0 788.2,179.9 797.5,196.7 806.7,154.4 816.0,154.8 825.3,146.5 834.5,128.7 843.8,114.9 853.1,107.7 862.4,90.7 871.6,65.7 880.9,57.9 890.2,60.1 899.5,66.4 908.7,62.5 918.0,61.8 927.3,34.7 936.5,38.4 945.8,48.0 955.1,32.3 964.4,57.9 973.6,83.5 982.9,105.7 992.2,126.2 1001.5,106.8 1010.7,58.6 1020.0,23.3"/><polyline fill="none" stroke="rgba(53,226,194,0.6)" stroke-width="1.8" points="0.0,337.6 9.3,344.5 18.5,342.8 27.8,341.2 37.1,338.3 46.4,330.8 55.6,322.9 64.9,328.1 74.2,323.7 83.5,321.9 92.7,332.7 102.0,317.5 111.3,321.2 120.5,312.8 129.8,301.6 139.1,294.4 148.4,286.4 157.6,298.9 166.9,291.1 176.2,297.9 185.5,289.8 194.7,280.7 204.0,305.0 213.3,302.4 222.5,319.6 231.8,322.3 241.1,310.1 250.4,308.1 259.6,303.8 268.9,295.3 278.2,280.1 287.5,272.3 296.7,271.5 306.0,288.1 315.3,297.3 324.5,269.7 333.8,253.6 343.1,254.2 352.4,247.7 361.6,265.3 370.9,247.8 380.2,225.0 389.5,208.9 398.7,223.1 408.0,195.4 417.3,200.7 426.5,213.0 435.8,244.2 445.1,229.9 454.4,237.7 463.6,232.2 472.9,223.5 482.2,177.8 491.5,177.0 500.7,164.0 510.0,157.2 519.3,166.8 528.5,155.3 537.8,178.1 547.1,175.8 556.4,183.3 565.6,190.1 574.9,209.5 584.2,208.4 593.5,182.1 602.7,198.8 612.0,205.9 621.3,197.9 630.5,194.9 639.8,182.9 649.1,193.5 658.4,203.7 667.6,188.2 676.9,183.1 686.2,179.6 695.5,169.3 704.7,176.2 714.0,184.5 723.3,175.8 732.5,191.3 741.8,164.0 751.1,196.3 760.4,201.0 769.6,213.4 778.9,215.5 788.2,221.6 797.5,227.8 806.7,213.0 816.0,196.1 825.3,185.9 834.5,158.3 843.8,119.9 853.1,142.3 862.4,116.5 871.6,129.7 880.9,100.8 890.2,98.6 899.5,111.4 908.7,130.8 918.0,117.3 927.3,161.5 936.5,149.4 945.8,145.3 955.1,133.3 964.4,116.2 973.6,111.9 982.9,114.5 992.2,90.3 1001.5,99.8 1010.7,106.0 1020.0,106.2"/><polyline fill="none" stroke="rgba(53,226,194,0.6)" stroke-width="1.8" points="0.0,337.6 9.3,325.3 18.5,327.1 27.8,315.2 37.1,307.0 46.4,309.2 55.6,302.6 64.9,290.2 74.2,292.4 83.5,278.9 92.7,274.3 102.0,272.0 111.3,261.5 120.5,235.3 129.8,258.5 139.1,255.0 148.4,260.7 157.6,281.5 166.9,289.9 176.2,295.0 185.5,294.5 194.7,276.4 204.0,269.0 213.3,256.9 222.5,256.3 231.8,253.9 241.1,251.1 250.4,264.3 259.6,263.8 268.9,261.1 278.2,262.1 287.5,268.3 296.7,252.7 306.0,241.1 315.3,241.7 324.5,254.5 333.8,246.9 343.1,246.2 352.4,260.3 361.6,287.4 370.9,305.3 380.2,334.7 389.5,339.5 398.7,318.3 408.0,316.5 417.3,322.8 426.5,329.9 435.8,329.0 445.1,341.0 454.4,339.9 463.6,336.4 472.9,333.7 482.2,329.7 491.5,319.9 500.7,309.2 510.0,302.0 519.3,283.4 528.5,301.2 537.8,294.0 547.1,279.1 556.4,266.0 565.6,265.1 574.9,262.8 584.2,275.7 593.5,265.2 602.7,254.3 612.0,259.4 621.3,251.9 630.5,249.0 639.8,247.4 649.1,245.6 658.4,235.8 667.6,247.4 676.9,244.6 686.2,227.5 695.5,225.1 704.7,239.1 714.0,238.3 723.3,230.2 732.5,222.9 741.8,224.5 751.1,222.4 760.4,208.9 769.6,224.3 778.9,208.7 788.2,193.1 797.5,214.9 806.7,198.2 816.0,215.9 825.3,204.0 834.5,189.0 843.8,167.0 853.1,185.7 862.4,188.2 871.6,172.9 880.9,150.1 890.2,107.8 899.5,79.0 908.7,78.1 918.0,81.8 927.3,75.4 936.5,72.6 945.8,97.4 955.1,75.2 964.4,90.6 973.6,57.3 982.9,42.1 992.2,55.6 1001.5,56.0 1010.7,91.5 1020.0,108.3"/><polyline fill="none" stroke="rgba(53,226,194,0.6)" stroke-width="1.8" points="0.0,337.6 9.3,345.3 18.5,367.8 27.8,379.2 37.1,371.7 46.4,362.1 55.6,366.4 64.9,355.5 74.2,359.7 83.5,348.6 92.7,347.5 102.0,327.3 111.3,332.6 120.5,330.6 129.8,307.3 139.1,317.9 148.4,322.6 157.6,328.4 166.9,343.7 176.2,345.3 185.5,340.0 194.7,332.1 204.0,332.5 213.3,327.1 222.5,319.2 231.8,309.2 241.1,318.6 250.4,316.3 259.6,327.1 268.9,326.8 278.2,315.9 287.5,328.8 296.7,332.6 306.0,335.9 315.3,325.7 324.5,309.2 333.8,302.3 343.1,320.2 352.4,308.5 361.6,304.0 370.9,305.4 380.2,294.2 389.5,290.4 398.7,275.0 408.0,297.8 417.3,306.4 426.5,302.0 435.8,312.0 445.1,313.3 454.4,313.8 463.6,321.1 472.9,314.1 482.2,313.2 491.5,317.4 500.7,325.4 510.0,309.6 519.3,306.6 528.5,304.9 537.8,309.6 547.1,301.6 556.4,302.4 565.6,307.0 574.9,313.5 584.2,287.5 593.5,278.9 602.7,275.7 612.0,278.3 621.3,272.4 630.5,271.9 639.8,279.1 649.1,272.9 658.4,284.4 667.6,296.8 676.9,281.1 686.2,282.2 695.5,274.1 704.7,292.0 714.0,293.1 723.3,279.9 732.5,265.6 741.8,280.2 751.1,291.6 760.4,270.3 769.6,278.2 778.9,298.1 788.2,294.8 797.5,281.0 806.7,284.8 816.0,296.0 825.3,284.8 834.5,250.2 843.8,257.4 853.1,253.6 862.4,254.2 871.6,253.5 880.9,245.7 890.2,226.4 899.5,232.3 908.7,263.0 918.0,240.4 927.3,222.4 936.5,206.4 945.8,195.3 955.1,176.9 964.4,171.5 973.6,155.4 982.9,115.5 992.2,129.0 1001.5,127.0 1010.7,140.2 1020.0,121.3"/><polyline fill="none" stroke="rgba(53,226,194,0.6)" stroke-width="1.8" points="0.0,337.6 9.3,331.9 18.5,334.6 27.8,349.0 37.1,327.7 46.4,321.6 55.6,336.1 64.9,321.4 74.2,325.9 83.5,326.4 92.7,338.8 102.0,328.3 111.3,322.1 120.5,316.8 129.8,309.8 139.1,307.3 148.4,295.6 157.6,284.6 166.9,270.2 176.2,260.0 185.5,248.0 194.7,250.4 204.0,206.4 213.3,188.2 222.5,195.7 231.8,199.5 241.1,207.6 250.4,222.6 259.6,205.2 268.9,220.4 278.2,220.1 287.5,221.6 296.7,214.0 306.0,224.6 315.3,231.7 324.5,239.0 333.8,225.0 343.1,205.3 352.4,202.0 361.6,191.9 370.9,200.7 380.2,187.9 389.5,152.9 398.7,153.7 408.0,166.7 417.3,168.9 426.5,183.4 435.8,157.0 445.1,153.4 454.4,163.6 463.6,156.9 472.9,154.9 482.2,163.4 491.5,162.4 500.7,172.8 510.0,147.2 519.3,143.2 528.5,165.1 537.8,165.8 547.1,184.7 556.4,179.5 565.6,179.2 574.9,198.5 584.2,183.3 593.5,190.6 602.7,192.7 612.0,195.7 621.3,154.4 630.5,167.2 639.8,167.2 649.1,177.0 658.4,170.1 667.6,190.5 676.9,179.8 686.2,183.5 695.5,163.1 704.7,151.5 714.0,179.9 723.3,179.3 732.5,163.0 741.8,139.1 751.1,156.4 760.4,180.1 769.6,193.4 778.9,187.9 788.2,205.9 797.5,178.1 806.7,155.4 816.0,138.4 825.3,120.3 834.5,143.7 843.8,122.1 853.1,107.9 862.4,70.5 871.6,72.1 880.9,83.6 890.2,87.3 899.5,107.1 908.7,115.4 918.0,77.3 927.3,67.7 936.5,79.3 945.8,86.6 955.1,107.4 964.4,124.4 973.6,148.9 982.9,144.9 992.2,127.7 1001.5,151.0 1010.7,131.9 1020.0,129.8"/><polyline fill="none" stroke="rgba(53,226,194,0.6)" stroke-width="1.8" points="0.0,337.6 9.3,337.2 18.5,322.1 27.8,333.9 37.1,333.2 46.4,341.7 55.6,333.3 64.9,330.5 74.2,325.0 83.5,340.0 92.7,353.6 102.0,337.1 111.3,337.0 120.5,328.4 129.8,340.5 139.1,325.8 148.4,325.7 157.6,314.9 166.9,323.6 176.2,311.9 185.5,311.8 194.7,307.7 204.0,324.1 213.3,319.3 222.5,318.2 231.8,320.5 241.1,315.3 250.4,299.5 259.6,294.7 268.9,292.6 278.2,278.3 287.5,269.8 296.7,281.4 306.0,252.5 315.3,252.5 324.5,229.0 333.8,208.5 343.1,197.1 352.4,206.1 361.6,159.5 370.9,180.7 380.2,179.4 389.5,183.7 398.7,169.2 408.0,172.7 417.3,179.8 426.5,165.9 435.8,146.1 445.1,179.7 454.4,170.6 463.6,157.5 472.9,155.5 482.2,181.6 491.5,192.1 500.7,190.1 510.0,218.5 519.3,232.6 528.5,215.3 537.8,209.5 547.1,233.8 556.4,216.7 565.6,219.5 574.9,236.1 584.2,217.1 593.5,233.2 602.7,234.1 612.0,240.2 621.3,230.7 630.5,245.4 639.8,227.3 649.1,222.3 658.4,237.7 667.6,235.2 676.9,229.9 686.2,237.5 695.5,224.4 704.7,207.6 714.0,202.4 723.3,217.9 732.5,213.9 741.8,198.7 751.1,222.0 760.4,198.2 769.6,178.4 778.9,182.7 788.2,160.8 797.5,172.1 806.7,175.0 816.0,167.1 825.3,180.9 834.5,164.0 843.8,182.9 853.1,177.2 862.4,169.0 871.6,152.1 880.9,172.9 890.2,174.4 899.5,152.7 908.7,148.4 918.0,118.9 927.3,147.5 936.5,135.3 945.8,161.2 955.1,154.9 964.4,157.0 973.6,157.9 982.9,148.4 992.2,131.2 1001.5,158.0 1010.7,154.2 1020.0,147.9"/><polyline fill="none" stroke="rgba(94,196,172,0.28)" stroke-width="1.2" points="0.0,337.6 9.3,336.4 18.5,345.3 27.8,338.1 37.1,335.3 46.4,342.7 55.6,343.0 64.9,349.9 74.2,335.7 83.5,328.4 92.7,334.9 102.0,343.6 111.3,337.6 120.5,304.7 129.8,313.7 139.1,318.5 148.4,323.7 157.6,315.1 166.9,327.7 176.2,335.1 185.5,354.0 194.7,347.9 204.0,340.7 213.3,331.6 222.5,325.3 231.8,333.7 241.1,324.5 250.4,306.3 259.6,268.5 268.9,264.3 278.2,287.5 287.5,287.1 296.7,290.8 306.0,295.8 315.3,299.8 324.5,295.1 333.8,296.0 343.1,284.2 352.4,275.6 361.6,270.3 370.9,252.0 380.2,242.4 389.5,248.0 398.7,263.6 408.0,267.0 417.3,256.7 426.5,261.4 435.8,270.5 445.1,265.7 454.4,247.0 463.6,229.0 472.9,230.7 482.2,227.0 491.5,217.0 500.7,198.8 510.0,215.3 519.3,220.6 528.5,216.0 537.8,209.5 547.1,214.5 556.4,231.6 565.6,213.0 574.9,210.9 584.2,194.5 593.5,165.6 602.7,159.6 612.0,179.6 621.3,186.9 630.5,189.5 639.8,185.1 649.1,196.0 658.4,197.7 667.6,201.7 676.9,188.9 686.2,197.7 695.5,178.7 704.7,174.3 714.0,173.2 723.3,160.6 732.5,126.0 741.8,122.0 751.1,129.1 760.4,116.6 769.6,146.8 778.9,104.2 788.2,105.8 797.5,94.9 806.7,101.8 816.0,94.0 825.3,73.6 834.5,69.5 843.8,58.3 853.1,81.7 862.4,39.8 871.6,15.0 880.9,33.4 890.2,44.7 899.5,74.0 908.7,43.8 918.0,106.5 927.3,81.3 936.5,109.7 945.8,75.9 955.1,75.0 964.4,65.2 973.6,100.8 982.9,103.7 992.2,121.6 1001.5,131.0 1010.7,150.0 1020.0,164.4"/><polyline fill="none" stroke="rgba(94,196,172,0.28)" stroke-width="1.2" points="0.0,337.6 9.3,351.1 18.5,351.4 27.8,360.5 37.1,350.3 46.4,349.5 55.6,350.1 64.9,359.1 74.2,369.8 83.5,378.7 92.7,374.9 102.0,376.8 111.3,383.8 120.5,381.5 129.8,385.5 139.1,387.4 148.4,379.0 157.6,369.5 166.9,372.8 176.2,370.0 185.5,383.6 194.7,379.7 204.0,371.1 213.3,363.5 222.5,362.1 231.8,367.5 241.1,372.2 250.4,383.3 259.6,392.5 268.9,380.6 278.2,374.1 287.5,382.4 296.7,380.8 306.0,394.5 315.3,402.3 324.5,404.3 333.8,395.1 343.1,401.1 352.4,394.4 361.6,399.3 370.9,406.7 380.2,410.5 389.5,406.6 398.7,403.2 408.0,393.2 417.3,388.8 426.5,378.5 435.8,383.7 445.1,370.8 454.4,374.6 463.6,373.5 472.9,376.9 482.2,380.7 491.5,378.3 500.7,373.4 510.0,385.7 519.3,380.0 528.5,387.7 537.8,388.9 547.1,383.9 556.4,391.3 565.6,396.3 574.9,396.7 584.2,394.3 593.5,392.5 602.7,387.8 612.0,369.1 621.3,358.1 630.5,354.5 639.8,351.7 649.1,348.9 658.4,352.7 667.6,337.2 676.9,338.1 686.2,339.9 695.5,330.9 704.7,323.1 714.0,321.1 723.3,320.7 732.5,316.1 741.8,328.3 751.1,317.6 760.4,300.9 769.6,284.0 778.9,283.4 788.2,280.3 797.5,283.2 806.7,265.6 816.0,249.6 825.3,216.5 834.5,206.1 843.8,202.2 853.1,213.4 862.4,230.3 871.6,227.8 880.9,203.6 890.2,187.8 899.5,183.1 908.7,181.6 918.0,163.0 927.3,171.5 936.5,177.3 945.8,205.7 955.1,202.6 964.4,216.0 973.6,206.0 982.9,200.8 992.2,181.3 1001.5,187.9 1010.7,183.6 1020.0,180.6"/><polyline fill="none" stroke="rgba(94,196,172,0.28)" stroke-width="1.2" points="0.0,337.6 9.3,311.0 18.5,311.4 27.8,320.5 37.1,319.4 46.4,320.4 55.6,311.0 64.9,318.0 74.2,329.3 83.5,342.8 92.7,328.6 102.0,316.7 111.3,305.0 120.5,309.7 129.8,308.6 139.1,287.6 148.4,295.8 157.6,286.1 166.9,276.0 176.2,268.7 185.5,281.8 194.7,266.3 204.0,262.9 213.3,277.5 222.5,263.4 231.8,266.9 241.1,277.3 250.4,261.2 259.6,263.1 268.9,277.2 278.2,260.0 287.5,250.0 296.7,243.1 306.0,232.1 315.3,257.9 324.5,248.5 333.8,246.2 343.1,232.7 352.4,235.6 361.6,226.6 370.9,233.5 380.2,243.2 389.5,233.0 398.7,226.1 408.0,236.6 417.3,245.8 426.5,243.8 435.8,201.7 445.1,198.7 454.4,183.8 463.6,195.6 472.9,182.7 482.2,156.7 491.5,150.9 500.7,142.4 510.0,106.3 519.3,125.2 528.5,151.0 537.8,138.7 547.1,139.0 556.4,122.3 565.6,123.3 574.9,128.1 584.2,153.1 593.5,145.7 602.7,173.4 612.0,191.5 621.3,191.1 630.5,209.4 639.8,180.8 649.1,150.3 658.4,123.6 667.6,119.9 676.9,146.5 686.2,148.1 695.5,162.6 704.7,164.8 714.0,174.8 723.3,183.3 732.5,187.2 741.8,183.8 751.1,183.8 760.4,178.8 769.6,188.3 778.9,168.1 788.2,184.5 797.5,174.8 806.7,152.6 816.0,168.6 825.3,190.5 834.5,171.8 843.8,154.1 853.1,163.3 862.4,169.5 871.6,174.8 880.9,166.6 890.2,176.7 899.5,166.3 908.7,172.1 918.0,185.5 927.3,173.0 936.5,174.0 945.8,180.2 955.1,178.4 964.4,168.5 973.6,139.4 982.9,164.8 992.2,169.3 1001.5,177.2 1010.7,185.7 1020.0,187.4"/><polyline fill="none" stroke="rgba(94,196,172,0.28)" stroke-width="1.2" points="0.0,337.6 9.3,334.4 18.5,313.8 27.8,322.4 37.1,303.2 46.4,301.8 55.6,298.1 64.9,318.5 74.2,316.4 83.5,323.6 92.7,311.2 102.0,299.7 111.3,302.5 120.5,292.4 129.8,292.7 139.1,310.1 148.4,330.1 157.6,334.8 166.9,324.8 176.2,306.9 185.5,312.8 194.7,318.1 204.0,322.9 213.3,312.1 222.5,308.0 231.8,307.9 241.1,301.3 250.4,306.5 259.6,300.6 268.9,302.3 278.2,312.5 287.5,314.7 296.7,315.8 306.0,302.6 315.3,293.3 324.5,288.2 333.8,302.0 343.1,302.3 352.4,310.1 361.6,301.2 370.9,309.8 380.2,304.8 389.5,299.0 398.7,283.3 408.0,251.8 417.3,267.1 426.5,288.2 435.8,273.4 445.1,281.3 454.4,274.1 463.6,281.9 472.9,293.8 482.2,294.8 491.5,285.0 500.7,289.6 510.0,285.5 519.3,282.5 528.5,283.2 537.8,302.2 547.1,291.4 556.4,292.8 565.6,285.1 574.9,318.2 584.2,332.6 593.5,323.0 602.7,321.8 612.0,318.4 621.3,317.1 630.5,332.3 639.8,330.4 649.1,330.5 658.4,328.2 667.6,326.7 676.9,311.0 686.2,315.6 695.5,303.1 704.7,306.9 714.0,292.4 723.3,300.9 732.5,288.7 741.8,291.9 751.1,285.7 760.4,292.0 769.6,266.4 778.9,242.6 788.2,262.3 797.5,247.6 806.7,265.6 816.0,266.7 825.3,281.4 834.5,282.7 843.8,271.3 853.1,269.4 862.4,272.7 871.6,271.6 880.9,273.2 890.2,262.2 899.5,268.4 908.7,258.1 918.0,255.1 927.3,261.3 936.5,270.2 945.8,257.0 955.1,247.0 964.4,229.7 973.6,234.8 982.9,217.7 992.2,223.7 1001.5,242.3 1010.7,226.5 1020.0,237.1"/><polyline fill="none" stroke="rgba(94,196,172,0.28)" stroke-width="1.2" points="0.0,337.6 9.3,331.1 18.5,328.6 27.8,327.6 37.1,333.3 46.4,315.0 55.6,324.1 64.9,319.6 74.2,328.2 83.5,340.3 92.7,343.6 102.0,351.0 111.3,339.9 120.5,331.2 129.8,313.6 139.1,310.5 148.4,330.2 157.6,339.4 166.9,342.1 176.2,337.1 185.5,343.7 194.7,361.8 204.0,354.5 213.3,350.4 222.5,357.9 231.8,354.8 241.1,366.4 250.4,358.7 259.6,363.6 268.9,361.7 278.2,358.0 287.5,351.3 296.7,355.5 306.0,342.7 315.3,332.0 324.5,335.2 333.8,328.8 343.1,314.8 352.4,302.2 361.6,308.8 370.9,307.7 380.2,322.2 389.5,322.9 398.7,328.6 408.0,332.8 417.3,320.8 426.5,323.4 435.8,333.8 445.1,335.8 454.4,350.3 463.6,348.3 472.9,343.2 482.2,333.7 491.5,329.7 500.7,332.7 510.0,337.4 519.3,344.0 528.5,361.3 537.8,356.7 547.1,352.7 556.4,328.1 565.6,325.8 574.9,325.7 584.2,328.5 593.5,332.0 602.7,327.9 612.0,347.9 621.3,350.3 630.5,345.2 639.8,335.0 649.1,314.4 658.4,322.0 667.6,318.2 676.9,317.4 686.2,314.5 695.5,313.3 704.7,313.2 714.0,298.5 723.3,294.2 732.5,292.5 741.8,296.5 751.1,283.5 760.4,303.1 769.6,298.3 778.9,301.3 788.2,318.9 797.5,323.6 806.7,314.6 816.0,304.2 825.3,312.0 834.5,305.8 843.8,292.8 853.1,295.3 862.4,295.5 871.6,305.3 880.9,309.4 890.2,308.7 899.5,282.4 908.7,287.1 918.0,300.3 927.3,299.5 936.5,293.8 945.8,294.0 955.1,303.4 964.4,285.1 973.6,279.1 982.9,278.3 992.2,242.9 1001.5,251.5 1010.7,243.7 1020.0,239.2"/><polyline fill="none" stroke="rgba(94,196,172,0.28)" stroke-width="1.2" points="0.0,337.6 9.3,324.5 18.5,336.4 27.8,321.0 37.1,333.2 46.4,331.0 55.6,329.1 64.9,324.0 74.2,321.1 83.5,323.7 92.7,329.2 102.0,338.8 111.3,340.3 120.5,340.9 129.8,326.0 139.1,325.1 148.4,320.7 157.6,329.1 166.9,330.9 176.2,308.5 185.5,313.1 194.7,324.6 204.0,319.6 213.3,312.0 222.5,314.5 231.8,296.9 241.1,274.9 250.4,259.5 259.6,263.8 268.9,261.0 278.2,264.5 287.5,271.7 296.7,263.6 306.0,274.6 315.3,288.8 324.5,300.1 333.8,312.9 343.1,298.7 352.4,288.8 361.6,273.0 370.9,276.1 380.2,272.2 389.5,276.4 398.7,265.2 408.0,240.1 417.3,243.1 426.5,255.2 435.8,245.3 445.1,250.8 454.4,251.4 463.6,260.6 472.9,254.4 482.2,260.4 491.5,252.1 500.7,240.0 510.0,243.8 519.3,247.5 528.5,264.8 537.8,262.8 547.1,275.4 556.4,277.7 565.6,286.4 574.9,295.2 584.2,304.5 593.5,291.9 602.7,283.9 612.0,289.5 621.3,299.8 630.5,293.9 639.8,301.6 649.1,312.8 658.4,312.3 667.6,319.8 676.9,322.2 686.2,324.8 695.5,323.5 704.7,320.3 714.0,322.0 723.3,321.6 732.5,323.9 741.8,334.8 751.1,337.0 760.4,346.3 769.6,334.4 778.9,340.4 788.2,334.9 797.5,338.8 806.7,353.9 816.0,353.7 825.3,357.0 834.5,350.9 843.8,329.3 853.1,334.3 862.4,316.5 871.6,308.9 880.9,321.1 890.2,328.2 899.5,335.9 908.7,336.2 918.0,329.6 927.3,328.5 936.5,338.1 945.8,322.5 955.1,321.3 964.4,308.8 973.6,315.7 982.9,308.1 992.2,293.4 1001.5,273.2 1010.7,257.3 1020.0,241.6"/><polyline fill="none" stroke="rgba(94,196,172,0.28)" stroke-width="1.2" points="0.0,337.6 9.3,321.5 18.5,297.6 27.8,282.2 37.1,290.8 46.4,295.2 55.6,304.8 64.9,288.5 74.2,307.8 83.5,304.0 92.7,304.9 102.0,310.4 111.3,314.5 120.5,312.2 129.8,330.6 139.1,323.1 148.4,325.3 157.6,319.3 166.9,318.3 176.2,323.2 185.5,338.1 194.7,344.2 204.0,338.9 213.3,324.3 222.5,330.9 231.8,322.7 241.1,327.9 250.4,325.9 259.6,318.9 268.9,319.8 278.2,295.8 287.5,302.3 296.7,324.9 306.0,332.9 315.3,343.8 324.5,346.9 333.8,339.8 343.1,351.3 352.4,363.7 361.6,346.9 370.9,342.8 380.2,352.6 389.5,346.7 398.7,347.1 408.0,361.1 417.3,353.0 426.5,352.3 435.8,347.5 445.1,340.5 454.4,345.5 463.6,327.3 472.9,321.1 482.2,324.7 491.5,319.2 500.7,309.4 510.0,303.7 519.3,298.6 528.5,285.8 537.8,291.7 547.1,304.6 556.4,289.1 565.6,292.7 574.9,294.6 584.2,296.8 593.5,300.0 602.7,283.6 612.0,284.6 621.3,281.7 630.5,277.1 639.8,265.1 649.1,269.6 658.4,267.8 667.6,261.6 676.9,272.5 686.2,256.3 695.5,240.3 704.7,262.4 714.0,268.9 723.3,265.5 732.5,274.0 741.8,272.2 751.1,259.6 760.4,244.2 769.6,248.5 778.9,262.1 788.2,258.6 797.5,262.9 806.7,254.3 816.0,223.2 825.3,207.5 834.5,216.0 843.8,210.6 853.1,188.8 862.4,177.7 871.6,171.2 880.9,197.0 890.2,210.1 899.5,188.2 908.7,169.1 918.0,149.0 927.3,162.8 936.5,161.9 945.8,186.4 955.1,195.2 964.4,191.4 973.6,201.7 982.9,192.3 992.2,188.0 1001.5,188.4 1010.7,230.1 1020.0,248.0"/><polyline fill="none" stroke="rgba(94,196,172,0.28)" stroke-width="1.2" points="0.0,337.6 9.3,333.4 18.5,329.8 27.8,310.2 37.1,320.7 46.4,326.3 55.6,312.2 64.9,309.9 74.2,311.0 83.5,316.6 92.7,310.1 102.0,305.4 111.3,305.4 120.5,304.4 129.8,274.8 139.1,277.5 148.4,267.8 157.6,258.9 166.9,258.9 176.2,239.9 185.5,234.1 194.7,245.0 204.0,269.0 213.3,275.7 222.5,265.2 231.8,245.4 241.1,267.0 250.4,262.5 259.6,268.3 268.9,255.7 278.2,249.8 287.5,269.4 296.7,281.5 306.0,279.0 315.3,285.4 324.5,292.0 333.8,290.9 343.1,271.1 352.4,277.3 361.6,290.8 370.9,306.1 380.2,304.6 389.5,293.7 398.7,305.6 408.0,310.0 417.3,291.0 426.5,269.2 435.8,279.3 445.1,273.8 454.4,275.8 463.6,256.9 472.9,240.7 482.2,226.5 491.5,208.0 500.7,199.4 510.0,222.5 519.3,238.2 528.5,244.4 537.8,229.3 547.1,232.9 556.4,233.8 565.6,241.5 574.9,254.3 584.2,265.4 593.5,272.8 602.7,262.5 612.0,271.3 621.3,252.1 630.5,262.9 639.8,252.0 649.1,253.9 658.4,270.7 667.6,284.3 676.9,273.1 686.2,294.1 695.5,296.2 704.7,288.2 714.0,303.0 723.3,296.3 732.5,309.2 741.8,315.6 751.1,316.9 760.4,304.8 769.6,298.4 778.9,308.6 788.2,316.7 797.5,317.9 806.7,308.2 816.0,294.6 825.3,287.7 834.5,286.3 843.8,285.0 853.1,288.7 862.4,286.5 871.6,290.3 880.9,287.2 890.2,290.9 899.5,279.9 908.7,268.9 918.0,272.6 927.3,279.7 936.5,277.5 945.8,274.0 955.1,249.1 964.4,231.1 973.6,222.8 982.9,217.0 992.2,229.8 1001.5,240.5 1010.7,232.9 1020.0,248.6"/><polyline fill="none" stroke="rgba(94,196,172,0.28)" stroke-width="1.2" points="0.0,337.6 9.3,329.4 18.5,326.4 27.8,333.7 37.1,339.8 46.4,349.1 55.6,349.8 64.9,353.7 74.2,360.5 83.5,359.2 92.7,362.4 102.0,372.0 111.3,381.9 120.5,378.9 129.8,361.5 139.1,356.7 148.4,358.1 157.6,369.9 166.9,362.8 176.2,356.2 185.5,348.6 194.7,344.3 204.0,339.1 213.3,341.9 222.5,343.0 231.8,344.1 241.1,356.7 250.4,356.7 259.6,347.5 268.9,345.5 278.2,338.1 287.5,340.8 296.7,324.6 306.0,311.3 315.3,305.8 324.5,303.1 333.8,295.7 343.1,300.3 352.4,274.8 361.6,253.8 370.9,246.3 380.2,243.4 389.5,251.0 398.7,252.6 408.0,228.9 417.3,228.7 426.5,227.2 435.8,206.6 445.1,202.9 454.4,201.2 463.6,200.1 472.9,203.4 482.2,215.3 491.5,223.3 500.7,204.2 510.0,210.7 519.3,206.4 528.5,198.7 537.8,196.1 547.1,200.6 556.4,200.1 565.6,173.7 574.9,147.5 584.2,158.8 593.5,176.8 602.7,177.6 612.0,171.7 621.3,170.1 630.5,179.7 639.8,178.2 649.1,186.5 658.4,205.1 667.6,200.6 676.9,215.9 686.2,205.6 695.5,213.8 704.7,213.6 714.0,236.2 723.3,232.4 732.5,235.5 741.8,211.6 751.1,251.8 760.4,246.2 769.6,257.0 778.9,266.0 788.2,270.3 797.5,273.9 806.7,262.5 816.0,278.9 825.3,276.3 834.5,294.3 843.8,285.6 853.1,299.0 862.4,295.5 871.6,303.1 880.9,302.6 890.2,298.9 899.5,296.4 908.7,288.1 918.0,278.5 927.3,284.5 936.5,288.2 945.8,288.3 955.1,293.1 964.4,292.3 973.6,286.2 982.9,279.5 992.2,269.4 1001.5,262.3 1010.7,262.7 1020.0,262.0"/><polyline fill="none" stroke="rgba(94,196,172,0.28)" stroke-width="1.2" points="0.0,337.6 9.3,340.9 18.5,336.4 27.8,323.8 37.1,329.1 46.4,335.3 55.6,341.8 64.9,345.2 74.2,337.1 83.5,333.7 92.7,336.3 102.0,322.1 111.3,304.8 120.5,325.7 129.8,315.3 139.1,294.3 148.4,298.6 157.6,321.7 166.9,335.3 176.2,335.3 185.5,318.1 194.7,310.3 204.0,307.1 213.3,292.3 222.5,298.7 231.8,281.2 241.1,280.1 250.4,277.7 259.6,270.3 268.9,276.7 278.2,261.3 287.5,251.2 296.7,284.0 306.0,290.8 315.3,289.5 324.5,290.6 333.8,280.5 343.1,265.5 352.4,260.1 361.6,261.3 370.9,241.3 380.2,232.2 389.5,234.3 398.7,233.3 408.0,216.6 417.3,222.7 426.5,199.0 435.8,179.6 445.1,174.7 454.4,187.9 463.6,194.0 472.9,211.5 482.2,202.8 491.5,204.9 500.7,213.5 510.0,229.4 519.3,224.7 528.5,213.3 537.8,236.0 547.1,246.0 556.4,268.1 565.6,257.8 574.9,279.7 584.2,277.9 593.5,287.8 602.7,281.0 612.0,271.1 621.3,269.2 630.5,275.5 639.8,264.9 649.1,273.6 658.4,284.8 667.6,290.3 676.9,289.0 686.2,300.8 695.5,283.2 704.7,273.7 714.0,278.4 723.3,264.4 732.5,250.9 741.8,244.0 751.1,250.6 760.4,252.0 769.6,266.5 778.9,275.1 788.2,252.8 797.5,260.3 806.7,239.4 816.0,220.7 825.3,233.5 834.5,230.6 843.8,207.2 853.1,217.6 862.4,229.6 871.6,225.9 880.9,232.6 890.2,230.9 899.5,228.8 908.7,223.0 918.0,221.8 927.3,219.4 936.5,228.2 945.8,233.0 955.1,242.8 964.4,244.6 973.6,250.3 982.9,237.6 992.2,244.7 1001.5,251.1 1010.7,248.9 1020.0,265.0"/><polyline fill="none" stroke="rgba(94,196,172,0.28)" stroke-width="1.2" points="0.0,337.6 9.3,336.2 18.5,329.4 27.8,325.2 37.1,326.9 46.4,315.9 55.6,294.8 64.9,293.2 74.2,284.9 83.5,297.0 92.7,302.3 102.0,300.7 111.3,304.2 120.5,309.9 129.8,297.2 139.1,297.1 148.4,301.0 157.6,317.7 166.9,317.9 176.2,320.8 185.5,327.2 194.7,342.1 204.0,357.1 213.3,352.3 222.5,351.4 231.8,347.2 241.1,338.7 250.4,330.4 259.6,329.7 268.9,336.1 278.2,340.8 287.5,339.9 296.7,335.6 306.0,329.3 315.3,339.8 324.5,332.3 333.8,326.1 343.1,321.1 352.4,322.7 361.6,311.3 370.9,319.8 380.2,319.8 389.5,316.6 398.7,330.6 408.0,336.1 417.3,336.5 426.5,330.4 435.8,332.1 445.1,330.9 454.4,334.5 463.6,343.6 472.9,328.7 482.2,327.7 491.5,334.5 500.7,333.3 510.0,338.8 519.3,341.4 528.5,336.1 537.8,314.7 547.1,302.4 556.4,312.6 565.6,288.9 574.9,300.1 584.2,308.2 593.5,299.4 602.7,318.5 612.0,313.7 621.3,296.1 630.5,289.9 639.8,288.1 649.1,296.8 658.4,311.0 667.6,302.7 676.9,270.7 686.2,273.8 695.5,272.5 704.7,258.4 714.0,265.9 723.3,258.7 732.5,267.8 741.8,259.7 751.1,268.3 760.4,265.1 769.6,252.4 778.9,254.3 788.2,277.6 797.5,305.5 806.7,306.1 816.0,315.6 825.3,316.0 834.5,311.2 843.8,309.7 853.1,320.5 862.4,313.1 871.6,306.4 880.9,308.8 890.2,286.6 899.5,285.5 908.7,295.9 918.0,288.5 927.3,269.1 936.5,257.0 945.8,267.7 955.1,278.6 964.4,265.6 973.6,279.0 982.9,271.2 992.2,270.8 1001.5,280.6 1010.7,264.7 1020.0,267.4"/><polyline fill="none" stroke="rgba(94,196,172,0.28)" stroke-width="1.2" points="0.0,337.6 9.3,326.2 18.5,334.3 27.8,328.1 37.1,332.7 46.4,324.6 55.6,309.0 64.9,304.3 74.2,295.1 83.5,288.4 92.7,263.3 102.0,270.2 111.3,280.9 120.5,287.6 129.8,280.2 139.1,255.2 148.4,228.2 157.6,228.5 166.9,224.8 176.2,242.0 185.5,250.4 194.7,248.6 204.0,267.4 213.3,275.2 222.5,295.7 231.8,306.3 241.1,319.2 250.4,317.7 259.6,321.5 268.9,311.7 278.2,317.5 287.5,316.4 296.7,308.5 306.0,315.3 315.3,308.4 324.5,293.1 333.8,296.5 343.1,306.9 352.4,291.3 361.6,314.4 370.9,299.4 380.2,305.1 389.5,306.7 398.7,306.1 408.0,322.1 417.3,315.0 426.5,317.2 435.8,316.2 445.1,323.5 454.4,313.3 463.6,321.2 472.9,328.8 482.2,326.6 491.5,317.1 500.7,320.2 510.0,318.5 519.3,300.2 528.5,280.3 537.8,287.7 547.1,300.7 556.4,309.8 565.6,308.2 574.9,289.3 584.2,299.5 593.5,298.3 602.7,289.3 612.0,273.0 621.3,276.9 630.5,275.4 639.8,293.9 649.1,300.4 658.4,286.3 667.6,283.9 676.9,282.8 686.2,279.1 695.5,293.7 704.7,303.0 714.0,308.0 723.3,304.6 732.5,292.0 741.8,274.4 751.1,259.0 760.4,247.6 769.6,257.6 778.9,254.5 788.2,240.5 797.5,234.5 806.7,227.5 816.0,218.6 825.3,210.0 834.5,209.0 843.8,212.4 853.1,210.7 862.4,216.2 871.6,216.6 880.9,228.9 890.2,247.9 899.5,238.5 908.7,249.5 918.0,279.7 927.3,267.1 936.5,270.7 945.8,252.5 955.1,252.5 964.4,283.7 973.6,305.3 982.9,291.3 992.2,278.4 1001.5,267.7 1010.7,271.1 1020.0,274.7"/><polyline fill="none" stroke="rgba(94,196,172,0.28)" stroke-width="1.2" points="0.0,337.6 9.3,322.3 18.5,326.5 27.8,338.8 37.1,331.9 46.4,320.7 55.6,322.3 64.9,325.8 74.2,323.2 83.5,339.4 92.7,326.2 102.0,313.4 111.3,316.4 120.5,312.7 129.8,313.7 139.1,319.4 148.4,322.3 157.6,319.6 166.9,312.2 176.2,314.6 185.5,299.4 194.7,294.0 204.0,294.9 213.3,300.6 222.5,298.7 231.8,298.4 241.1,295.6 250.4,280.3 259.6,272.4 268.9,258.2 278.2,253.3 287.5,266.9 296.7,266.2 306.0,263.5 315.3,265.1 324.5,259.9 333.8,271.5 343.1,267.1 352.4,277.4 361.6,277.8 370.9,276.7 380.2,269.2 389.5,258.2 398.7,237.8 408.0,247.0 417.3,240.2 426.5,260.5 435.8,250.4 445.1,253.3 454.4,244.8 463.6,260.9 472.9,274.3 482.2,284.4 491.5,286.5 500.7,279.9 510.0,248.3 519.3,246.5 528.5,259.5 537.8,255.0 547.1,242.0 556.4,246.0 565.6,218.2 574.9,223.9 584.2,245.8 593.5,259.1 602.7,248.5 612.0,233.5 621.3,239.0 630.5,216.4 639.8,196.7 649.1,200.7 658.4,174.4 667.6,185.8 676.9,182.0 686.2,173.3 695.5,175.0 704.7,192.6 714.0,202.8 723.3,215.2 732.5,213.0 741.8,225.3 751.1,220.7 760.4,221.1 769.6,221.6 778.9,234.9 788.2,261.5 797.5,263.2 806.7,239.1 816.0,277.9 825.3,273.9 834.5,272.4 843.8,268.3 853.1,288.4 862.4,299.4 871.6,289.9 880.9,306.7 890.2,324.5 899.5,320.4 908.7,307.4 918.0,300.4 927.3,295.7 936.5,302.1 945.8,284.2 955.1,280.2 964.4,277.2 973.6,280.7 982.9,288.1 992.2,295.1 1001.5,286.4 1010.7,281.3 1020.0,277.9"/><polyline fill="none" stroke="rgba(94,196,172,0.28)" stroke-width="1.2" points="0.0,337.6 9.3,328.9 18.5,330.4 27.8,328.9 37.1,329.6 46.4,322.8 55.6,311.9 64.9,321.4 74.2,317.8 83.5,324.1 92.7,325.4 102.0,321.0 111.3,330.8 120.5,341.5 129.8,358.4 139.1,346.9 148.4,344.1 157.6,337.7 166.9,343.0 176.2,347.3 185.5,338.0 194.7,339.4 204.0,324.3 213.3,331.1 222.5,341.9 231.8,337.9 241.1,329.0 250.4,306.7 259.6,304.5 268.9,313.1 278.2,309.2 287.5,299.0 296.7,300.4 306.0,305.1 315.3,305.9 324.5,311.7 333.8,323.0 343.1,334.7 352.4,318.0 361.6,317.0 370.9,325.5 380.2,311.2 389.5,300.6 398.7,296.8 408.0,302.4 417.3,317.3 426.5,301.6 435.8,301.8 445.1,308.9 454.4,320.1 463.6,325.0 472.9,328.8 482.2,318.7 491.5,329.7 500.7,318.2 510.0,310.5 519.3,311.3 528.5,310.2 537.8,303.9 547.1,327.0 556.4,307.5 565.6,300.5 574.9,326.9 584.2,324.9 593.5,321.2 602.7,323.9 612.0,330.4 621.3,343.2 630.5,340.4 639.8,345.9 649.1,325.8 658.4,326.2 667.6,329.6 676.9,331.1 686.2,335.4 695.5,341.5 704.7,328.0 714.0,327.0 723.3,316.8 732.5,311.5 741.8,316.9 751.1,321.8 760.4,339.2 769.6,338.3 778.9,335.7 788.2,323.9 797.5,318.0 806.7,305.7 816.0,295.0 825.3,287.5 834.5,281.5 843.8,298.1 853.1,294.5 862.4,297.6 871.6,285.9 880.9,295.5 890.2,283.4 899.5,289.8 908.7,278.4 918.0,270.4 927.3,275.0 936.5,266.3 945.8,293.2 955.1,300.3 964.4,304.4 973.6,300.2 982.9,283.3 992.2,287.2 1001.5,287.7 1010.7,285.6 1020.0,282.3"/><polyline fill="none" stroke="rgba(94,196,172,0.28)" stroke-width="1.2" points="0.0,337.6 9.3,340.8 18.5,335.1 27.8,347.0 37.1,362.7 46.4,356.9 55.6,351.0 64.9,345.1 74.2,346.7 83.5,341.6 92.7,350.4 102.0,357.5 111.3,357.1 120.5,355.0 129.8,357.7 139.1,368.7 148.4,372.7 157.6,384.4 166.9,384.0 176.2,386.5 185.5,379.2 194.7,371.6 204.0,369.5 213.3,352.1 222.5,344.1 231.8,342.5 241.1,347.8 250.4,353.1 259.6,350.9 268.9,355.8 278.2,360.0 287.5,357.0 296.7,345.4 306.0,342.6 315.3,341.6 324.5,352.1 333.8,337.1 343.1,332.9 352.4,327.4 361.6,333.3 370.9,324.0 380.2,310.9 389.5,320.6 398.7,317.1 408.0,331.3 417.3,331.5 426.5,312.7 435.8,329.5 445.1,330.4 454.4,330.4 463.6,317.7 472.9,312.8 482.2,312.8 491.5,305.5 500.7,301.4 510.0,321.5 519.3,334.1 528.5,341.1 537.8,349.7 547.1,343.7 556.4,353.8 565.6,364.8 574.9,366.8 584.2,348.4 593.5,342.6 602.7,354.6 612.0,358.6 621.3,358.4 630.5,361.6 639.8,373.5 649.1,372.2 658.4,367.5 667.6,369.5 676.9,366.1 686.2,332.5 695.5,333.1 704.7,336.0 714.0,346.5 723.3,361.9 732.5,352.1 741.8,357.6 751.1,356.6 760.4,347.7 769.6,339.2 778.9,325.8 788.2,342.5 797.5,344.1 806.7,354.6 816.0,334.8 825.3,342.4 834.5,357.1 843.8,355.5 853.1,354.1 862.4,350.5 871.6,351.8 880.9,333.7 890.2,338.4 899.5,326.8 908.7,332.1 918.0,322.3 927.3,303.1 936.5,306.2 945.8,321.1 955.1,326.0 964.4,315.4 973.6,310.0 982.9,307.5 992.2,313.1 1001.5,311.8 1010.7,296.7 1020.0,289.6"/><polyline fill="none" stroke="rgba(94,196,172,0.28)" stroke-width="1.2" points="0.0,337.6 9.3,343.7 18.5,356.6 27.8,361.4 37.1,365.4 46.4,373.2 55.6,375.6 64.9,378.8 74.2,376.6 83.5,369.8 92.7,370.9 102.0,360.4 111.3,353.3 120.5,351.8 129.8,354.6 139.1,352.5 148.4,346.7 157.6,347.8 166.9,337.1 176.2,346.5 185.5,357.8 194.7,369.1 204.0,375.4 213.3,361.4 222.5,362.6 231.8,353.2 241.1,352.0 250.4,341.7 259.6,347.4 268.9,360.6 278.2,363.7 287.5,370.0 296.7,366.2 306.0,360.8 315.3,358.2 324.5,361.0 333.8,359.9 343.1,362.2 352.4,346.0 361.6,348.8 370.9,344.1 380.2,328.0 389.5,328.9 398.7,327.3 408.0,335.4 417.3,335.6 426.5,333.2 435.8,342.4 445.1,345.2 454.4,341.6 463.6,345.0 472.9,344.9 482.2,354.5 491.5,359.2 500.7,365.2 510.0,362.6 519.3,367.6 528.5,361.9 537.8,362.0 547.1,354.0 556.4,344.5 565.6,336.7 574.9,343.7 584.2,345.6 593.5,350.8 602.7,351.5 612.0,337.4 621.3,335.9 630.5,335.2 639.8,336.7 649.1,349.2 658.4,351.4 667.6,345.9 676.9,360.5 686.2,359.1 695.5,362.2 704.7,358.3 714.0,374.6 723.3,372.3 732.5,378.0 741.8,381.9 751.1,387.4 760.4,395.0 769.6,387.9 778.9,385.0 788.2,379.0 797.5,361.4 806.7,355.8 816.0,351.1 825.3,336.9 834.5,336.0 843.8,319.2 853.1,330.6 862.4,335.9 871.6,343.8 880.9,339.8 890.2,330.8 899.5,320.1 908.7,314.1 918.0,305.5 927.3,311.7 936.5,309.0 945.8,296.2 955.1,287.3 964.4,284.7 973.6,313.7 982.9,297.8 992.2,298.0 1001.5,299.4 1010.7,289.0 1020.0,289.6"/><polyline fill="none" stroke="rgba(94,196,172,0.28)" stroke-width="1.2" points="0.0,337.6 9.3,341.4 18.5,336.3 27.8,320.5 37.1,329.3 46.4,335.0 55.6,336.9 64.9,339.7 74.2,334.5 83.5,320.3 92.7,327.9 102.0,309.7 111.3,311.2 120.5,323.0 129.8,334.9 139.1,338.6 148.4,321.5 157.6,315.6 166.9,319.8 176.2,293.1 185.5,261.9 194.7,268.6 204.0,268.4 213.3,272.7 222.5,266.9 231.8,260.3 241.1,260.0 250.4,279.2 259.6,282.6 268.9,294.0 278.2,270.5 287.5,279.7 296.7,291.3 306.0,307.7 315.3,308.1 324.5,311.7 333.8,313.5 343.1,300.4 352.4,306.9 361.6,314.7 370.9,311.1 380.2,317.9 389.5,318.5 398.7,322.0 408.0,336.9 417.3,329.2 426.5,320.5 435.8,324.8 445.1,330.5 454.4,314.2 463.6,305.8 472.9,305.2 482.2,301.1 491.5,303.2 500.7,286.7 510.0,270.3 519.3,257.1 528.5,278.5 537.8,290.5 547.1,298.1 556.4,297.7 565.6,306.7 574.9,311.1 584.2,314.3 593.5,315.3 602.7,329.1 612.0,330.8 621.3,317.7 630.5,316.9 639.8,303.1 649.1,300.0 658.4,304.1 667.6,317.4 676.9,316.3 686.2,304.2 695.5,307.8 704.7,306.7 714.0,309.3 723.3,316.2 732.5,330.8 741.8,334.8 751.1,348.0 760.4,354.0 769.6,354.3 778.9,360.1 788.2,351.3 797.5,349.7 806.7,349.8 816.0,340.6 825.3,327.0 834.5,312.4 843.8,308.6 853.1,315.2 862.4,319.5 871.6,317.3 880.9,302.6 890.2,305.8 899.5,304.2 908.7,304.3 918.0,317.3 927.3,336.5 936.5,337.1 945.8,328.3 955.1,322.7 964.4,314.6 973.6,304.7 982.9,322.4 992.2,320.7 1001.5,327.5 1010.7,313.2 1020.0,307.6"/><polyline fill="none" stroke="rgba(94,196,172,0.28)" stroke-width="1.2" points="0.0,337.6 9.3,339.2 18.5,334.9 27.8,332.2 37.1,344.6 46.4,344.0 55.6,354.8 64.9,363.8 74.2,368.7 83.5,375.1 92.7,383.2 102.0,377.8 111.3,377.5 120.5,374.5 129.8,369.8 139.1,375.1 148.4,365.7 157.6,370.7 166.9,353.4 176.2,354.0 185.5,358.3 194.7,348.7 204.0,347.6 213.3,341.0 222.5,333.8 231.8,326.0 241.1,323.0 250.4,320.4 259.6,314.6 268.9,321.4 278.2,302.9 287.5,314.9 296.7,308.7 306.0,308.5 315.3,316.9 324.5,302.5 333.8,305.0 343.1,312.2 352.4,333.4 361.6,346.5 370.9,354.9 380.2,342.4 389.5,340.3 398.7,347.7 408.0,342.6 417.3,321.4 426.5,327.0 435.8,326.1 445.1,325.9 454.4,333.1 463.6,332.1 472.9,320.9 482.2,332.2 491.5,328.4 500.7,327.9 510.0,332.4 519.3,339.9 528.5,338.8 537.8,327.5 547.1,329.1 556.4,327.1 565.6,325.0 574.9,338.5 584.2,341.0 593.5,336.0 602.7,343.0 612.0,345.3 621.3,339.5 630.5,336.4 639.8,330.0 649.1,326.8 658.4,336.0 667.6,345.3 676.9,349.0 686.2,339.7 695.5,336.1 704.7,333.7 714.0,334.1 723.3,329.6 732.5,338.4 741.8,330.0 751.1,328.4 760.4,342.6 769.6,338.5 778.9,335.8 788.2,328.9 797.5,322.9 806.7,308.5 816.0,320.3 825.3,321.2 834.5,318.8 843.8,313.7 853.1,319.6 862.4,329.0 871.6,330.1 880.9,312.5 890.2,319.8 899.5,305.9 908.7,305.0 918.0,313.6 927.3,316.2 936.5,301.4 945.8,313.6 955.1,310.7 964.4,314.5 973.6,314.8 982.9,317.1 992.2,328.8 1001.5,337.2 1010.7,341.7 1020.0,334.0"/><polyline fill="none" stroke="rgba(120,170,158,0.15)" stroke-width="1.2" points="0.0,337.6 9.3,327.6 18.5,334.8 27.8,348.7 37.1,348.5 46.4,346.7 55.6,337.9 64.9,338.1 74.2,344.6 83.5,349.4 92.7,350.8 102.0,356.1 111.3,362.0 120.5,365.8 129.8,354.9 139.1,359.6 148.4,358.7 157.6,367.4 166.9,372.9 176.2,365.0 185.5,367.7 194.7,372.8 204.0,361.4 213.3,368.7 222.5,360.5 231.8,351.2 241.1,352.1 250.4,352.6 259.6,362.6 268.9,366.3 278.2,370.1 287.5,376.2 296.7,387.8 306.0,393.2 315.3,398.7 324.5,401.3 333.8,390.3 343.1,385.4 352.4,385.9 361.6,391.9 370.9,392.3 380.2,396.8 389.5,394.3 398.7,399.4 408.0,390.4 417.3,397.5 426.5,398.4 435.8,404.8 445.1,386.2 454.4,388.7 463.6,390.8 472.9,389.5 482.2,396.3 491.5,396.8 500.7,393.3 510.0,387.3 519.3,390.9 528.5,375.7 537.8,380.3 547.1,380.3 556.4,377.6 565.6,383.9 574.9,377.0 584.2,376.9 593.5,386.5 602.7,385.4 612.0,380.9 621.3,383.7 630.5,389.8 639.8,376.3 649.1,380.1 658.4,372.2 667.6,377.6 676.9,374.5 686.2,385.2 695.5,386.5 704.7,383.1 714.0,372.1 723.3,355.6 732.5,360.8 741.8,365.7 751.1,355.4 760.4,349.7 769.6,349.1 778.9,342.3 788.2,341.0 797.5,346.9 806.7,354.6 816.0,359.6 825.3,361.6 834.5,357.9 843.8,346.2 853.1,360.7 862.4,351.4 871.6,368.5 880.9,365.2 890.2,364.3 899.5,357.9 908.7,356.8 918.0,351.9 927.3,351.4 936.5,336.5 945.8,341.7 955.1,344.1 964.4,325.5 973.6,336.7 982.9,327.2 992.2,334.2 1001.5,337.7 1010.7,333.9 1020.0,348.3"/><polyline fill="none" stroke="rgba(120,170,158,0.15)" stroke-width="1.2" points="0.0,337.6 9.3,353.4 18.5,362.5 27.8,360.2 37.1,373.0 46.4,368.5 55.6,361.6 64.9,377.0 74.2,381.1 83.5,392.5 92.7,397.2 102.0,397.4 111.3,393.2 120.5,397.6 129.8,392.7 139.1,397.1 148.4,385.2 157.6,378.2 166.9,385.6 176.2,382.2 185.5,378.7 194.7,371.3 204.0,365.9 213.3,364.4 222.5,364.3 231.8,367.3 241.1,382.2 250.4,390.5 259.6,397.1 268.9,395.4 278.2,388.4 287.5,391.9 296.7,399.1 306.0,405.7 315.3,402.6 324.5,402.3 333.8,396.0 343.1,393.5 352.4,396.1 361.6,389.2 370.9,386.4 380.2,392.4 389.5,395.4 398.7,396.2 408.0,404.9 417.3,402.1 426.5,403.4 435.8,405.6 445.1,394.2 454.4,386.3 463.6,379.2 472.9,374.8 482.2,383.5 491.5,384.9 500.7,383.1 510.0,375.8 519.3,370.7 528.5,362.3 537.8,364.4 547.1,351.0 556.4,338.4 565.6,351.1 574.9,354.4 584.2,340.7 593.5,320.8 602.7,334.1 612.0,325.8 621.3,320.1 630.5,328.7 639.8,334.3 649.1,350.9 658.4,332.4 667.6,334.7 676.9,328.0 686.2,331.0 695.5,323.8 704.7,325.8 714.0,326.9 723.3,320.6 732.5,324.9 741.8,328.3 751.1,327.2 760.4,334.9 769.6,337.5 778.9,336.4 788.2,349.7 797.5,358.8 806.7,348.7 816.0,340.3 825.3,345.4 834.5,361.8 843.8,372.0 853.1,367.4 862.4,376.5 871.6,374.9 880.9,368.1 890.2,366.9 899.5,374.6 908.7,377.5 918.0,374.1 927.3,365.3 936.5,357.5 945.8,347.8 955.1,340.6 964.4,337.1 973.6,338.1 982.9,347.3 992.2,353.0 1001.5,347.7 1010.7,354.0 1020.0,358.6"/><polyline fill="none" stroke="rgba(120,170,158,0.15)" stroke-width="1.2" points="0.0,337.6 9.3,332.8 18.5,319.8 27.8,310.7 37.1,299.1 46.4,279.8 55.6,285.1 64.9,311.2 74.2,304.2 83.5,281.5 92.7,295.4 102.0,293.4 111.3,284.9 120.5,279.2 129.8,300.3 139.1,302.0 148.4,296.5 157.6,294.3 166.9,286.3 176.2,291.8 185.5,293.8 194.7,303.5 204.0,313.9 213.3,320.0 222.5,328.9 231.8,327.5 241.1,308.1 250.4,287.4 259.6,282.5 268.9,294.3 278.2,290.6 287.5,298.1 296.7,304.1 306.0,310.9 315.3,311.2 324.5,323.4 333.8,336.0 343.1,329.2 352.4,328.9 361.6,337.1 370.9,335.4 380.2,316.5 389.5,313.7 398.7,310.8 408.0,300.3 417.3,281.7 426.5,283.4 435.8,299.9 445.1,319.9 454.4,321.1 463.6,316.2 472.9,308.8 482.2,313.7 491.5,312.6 500.7,324.0 510.0,325.0 519.3,310.1 528.5,305.3 537.8,311.1 547.1,312.2 556.4,297.0 565.6,298.8 574.9,286.2 584.2,294.1 593.5,290.2 602.7,286.6 612.0,285.4 621.3,288.0 630.5,279.9 639.8,293.1 649.1,296.2 658.4,293.3 667.6,284.5 676.9,297.5 686.2,274.0 695.5,260.4 704.7,270.8 714.0,282.5 723.3,264.4 732.5,258.9 741.8,257.6 751.1,263.1 760.4,276.0 769.6,275.0 778.9,253.2 788.2,259.4 797.5,265.4 806.7,268.5 816.0,248.0 825.3,251.3 834.5,263.4 843.8,281.0 853.1,307.7 862.4,303.5 871.6,286.4 880.9,276.4 890.2,290.9 899.5,281.5 908.7,288.1 918.0,291.0 927.3,286.5 936.5,294.6 945.8,280.0 955.1,285.6 964.4,308.2 973.6,316.7 982.9,329.9 992.2,348.4 1001.5,345.7 1010.7,359.7 1020.0,359.3"/><polyline fill="none" stroke="rgba(120,170,158,0.15)" stroke-width="1.2" points="0.0,337.6 9.3,333.0 18.5,342.7 27.8,346.4 37.1,338.0 46.4,337.6 55.6,329.5 64.9,347.3 74.2,351.5 83.5,363.6 92.7,366.3 102.0,359.1 111.3,374.0 120.5,362.9 129.8,354.1 139.1,338.1 148.4,343.0 157.6,350.2 166.9,330.5 176.2,325.1 185.5,321.3 194.7,330.4 204.0,331.2 213.3,341.7 222.5,349.1 231.8,351.6 241.1,360.3 250.4,364.7 259.6,368.2 268.9,368.2 278.2,362.3 287.5,375.4 296.7,372.9 306.0,374.6 315.3,379.4 324.5,386.9 333.8,378.9 343.1,384.1 352.4,372.5 361.6,377.1 370.9,367.8 380.2,360.2 389.5,356.1 398.7,364.0 408.0,348.3 417.3,355.1 426.5,350.9 435.8,357.4 445.1,359.2 454.4,362.4 463.6,355.5 472.9,340.4 482.2,345.0 491.5,347.2 500.7,352.5 510.0,368.6 519.3,364.1 528.5,369.5 537.8,375.5 547.1,384.9 556.4,383.5 565.6,385.2 574.9,388.9 584.2,379.3 593.5,379.2 602.7,383.7 612.0,377.2 621.3,381.2 630.5,375.0 639.8,371.8 649.1,367.6 658.4,372.2 667.6,351.9 676.9,361.6 686.2,366.5 695.5,366.4 704.7,370.8 714.0,371.4 723.3,371.9 732.5,371.0 741.8,367.6 751.1,369.7 760.4,364.1 769.6,357.1 778.9,344.7 788.2,355.1 797.5,365.3 806.7,368.5 816.0,368.5 825.3,373.3 834.5,376.4 843.8,385.4 853.1,381.7 862.4,395.3 871.6,391.4 880.9,395.3 890.2,391.0 899.5,383.9 908.7,386.9 918.0,381.6 927.3,383.5 936.5,393.3 945.8,389.7 955.1,371.7 964.4,362.0 973.6,360.0 982.9,357.8 992.2,365.8 1001.5,364.5 1010.7,363.8 1020.0,362.7"/><polyline fill="none" stroke="rgba(120,170,158,0.15)" stroke-width="1.2" points="0.0,337.6 9.3,330.9 18.5,334.0 27.8,334.9 37.1,313.7 46.4,314.3 55.6,305.6 64.9,273.8 74.2,278.4 83.5,282.8 92.7,290.6 102.0,293.0 111.3,279.6 120.5,288.0 129.8,292.4 139.1,276.1 148.4,277.7 157.6,278.1 166.9,280.5 176.2,292.1 185.5,275.4 194.7,274.8 204.0,288.9 213.3,277.9 222.5,286.9 231.8,293.2 241.1,277.0 250.4,294.6 259.6,309.4 268.9,314.8 278.2,331.3 287.5,336.4 296.7,344.3 306.0,343.2 315.3,352.2 324.5,344.0 333.8,338.6 343.1,321.7 352.4,331.1 361.6,332.6 370.9,344.7 380.2,347.8 389.5,321.7 398.7,318.1 408.0,314.4 417.3,322.4 426.5,333.7 435.8,328.3 445.1,334.7 454.4,343.4 463.6,344.3 472.9,351.0 482.2,352.1 491.5,361.9 500.7,369.7 510.0,376.7 519.3,373.1 528.5,379.7 537.8,383.8 547.1,379.2 556.4,384.1 565.6,360.7 574.9,367.6 584.2,375.5 593.5,385.6 602.7,382.9 612.0,377.1 621.3,372.9 630.5,357.6 639.8,361.5 649.1,372.5 658.4,371.6 667.6,357.1 676.9,369.0 686.2,376.7 695.5,367.1 704.7,372.7 714.0,373.7 723.3,370.6 732.5,358.3 741.8,352.7 751.1,355.3 760.4,374.8 769.6,387.6 778.9,387.1 788.2,400.0 797.5,397.3 806.7,401.8 816.0,402.0 825.3,402.1 834.5,390.5 843.8,385.4 853.1,401.6 862.4,389.7 871.6,391.7 880.9,389.0 890.2,394.8 899.5,379.8 908.7,373.9 918.0,379.2 927.3,362.8 936.5,349.0 945.8,352.6 955.1,348.3 964.4,351.9 973.6,358.0 982.9,360.6 992.2,370.6 1001.5,355.1 1010.7,350.0 1020.0,363.0"/><polyline fill="none" stroke="rgba(120,170,158,0.15)" stroke-width="1.2" points="0.0,337.6 9.3,336.3 18.5,319.7 27.8,319.2 37.1,306.5 46.4,313.5 55.6,316.6 64.9,316.7 74.2,311.4 83.5,305.5 92.7,283.6 102.0,298.4 111.3,298.0 120.5,294.7 129.8,298.9 139.1,300.3 148.4,284.7 157.6,278.4 166.9,282.4 176.2,290.1 185.5,279.9 194.7,286.8 204.0,292.2 213.3,289.7 222.5,277.3 231.8,289.2 241.1,281.9 250.4,290.4 259.6,294.3 268.9,294.4 278.2,311.5 287.5,305.0 296.7,305.1 306.0,296.9 315.3,286.0 324.5,289.7 333.8,311.1 343.1,304.9 352.4,300.8 361.6,304.7 370.9,303.2 380.2,299.6 389.5,292.4 398.7,283.4 408.0,264.9 417.3,266.6 426.5,261.7 435.8,267.1 445.1,275.9 454.4,304.1 463.6,300.8 472.9,304.4 482.2,299.2 491.5,294.9 500.7,313.8 510.0,308.7 519.3,300.1 528.5,305.6 537.8,308.4 547.1,315.3 556.4,316.9 565.6,315.3 574.9,315.8 584.2,317.9 593.5,311.1 602.7,323.4 612.0,310.5 621.3,306.0 630.5,301.2 639.8,286.0 649.1,279.4 658.4,278.9 667.6,281.7 676.9,292.9 686.2,302.8 695.5,319.8 704.7,319.1 714.0,327.6 723.3,323.3 732.5,318.1 741.8,329.6 751.1,336.8 760.4,338.8 769.6,338.8 778.9,339.2 788.2,334.9 797.5,335.2 806.7,323.6 816.0,333.0 825.3,336.0 834.5,326.1 843.8,331.2 853.1,325.9 862.4,352.4 871.6,344.8 880.9,335.8 890.2,341.7 899.5,344.4 908.7,345.5 918.0,356.1 927.3,352.8 936.5,360.9 945.8,363.8 955.1,364.2 964.4,364.6 973.6,364.8 982.9,373.2 992.2,380.4 1001.5,381.0 1010.7,371.4 1020.0,370.5"/><polyline fill="none" stroke="rgba(120,170,158,0.15)" stroke-width="1.2" points="0.0,337.6 9.3,347.6 18.5,344.6 27.8,347.5 37.1,359.8 46.4,347.9 55.6,333.5 64.9,338.2 74.2,313.9 83.5,306.8 92.7,305.4 102.0,301.2 111.3,309.9 120.5,307.6 129.8,305.5 139.1,295.3 148.4,271.7 157.6,249.4 166.9,249.3 176.2,240.7 185.5,242.5 194.7,243.7 204.0,252.2 213.3,252.5 222.5,223.6 231.8,220.5 241.1,244.2 250.4,236.6 259.6,226.4 268.9,238.3 278.2,245.7 287.5,234.0 296.7,217.0 306.0,225.7 315.3,226.4 324.5,222.9 333.8,205.7 343.1,218.6 352.4,232.9 361.6,224.7 370.9,250.3 380.2,244.0 389.5,264.8 398.7,240.7 408.0,242.3 417.3,251.5 426.5,248.3 435.8,259.4 445.1,263.1 454.4,264.5 463.6,260.9 472.9,239.3 482.2,242.9 491.5,258.9 500.7,266.6 510.0,273.2 519.3,271.2 528.5,256.2 537.8,259.1 547.1,249.3 556.4,284.9 565.6,285.5 574.9,284.2 584.2,273.5 593.5,274.0 602.7,263.2 612.0,273.9 621.3,284.2 630.5,272.8 639.8,256.2 649.1,250.6 658.4,261.4 667.6,254.9 676.9,258.1 686.2,290.6 695.5,284.4 704.7,303.7 714.0,304.7 723.3,300.8 732.5,298.8 741.8,302.7 751.1,297.8 760.4,318.1 769.6,303.6 778.9,315.4 788.2,314.4 797.5,323.2 806.7,323.5 816.0,317.8 825.3,312.3 834.5,319.9 843.8,311.9 853.1,301.1 862.4,326.3 871.6,325.8 880.9,346.2 890.2,333.3 899.5,330.8 908.7,328.9 918.0,324.1 927.3,330.3 936.5,333.1 945.8,334.9 955.1,344.9 964.4,350.8 973.6,361.5 982.9,369.5 992.2,374.2 1001.5,364.1 1010.7,358.3 1020.0,370.8"/><polyline fill="none" stroke="rgba(120,170,158,0.15)" stroke-width="1.2" points="0.0,337.6 9.3,344.6 18.5,339.6 27.8,333.4 37.1,322.4 46.4,321.0 55.6,323.6 64.9,336.3 74.2,326.9 83.5,334.6 92.7,339.4 102.0,330.7 111.3,340.0 120.5,331.7 129.8,332.0 139.1,344.5 148.4,338.4 157.6,339.6 166.9,333.6 176.2,343.3 185.5,358.0 194.7,359.8 204.0,361.6 213.3,373.3 222.5,369.9 231.8,369.7 241.1,381.3 250.4,379.5 259.6,366.6 268.9,367.3 278.2,380.9 287.5,371.6 296.7,380.9 306.0,382.5 315.3,381.5 324.5,377.0 333.8,377.9 343.1,383.5 352.4,397.4 361.6,398.6 370.9,398.2 380.2,398.4 389.5,391.6 398.7,395.3 408.0,402.3 417.3,402.3 426.5,405.9 435.8,411.2 445.1,412.5 454.4,423.1 463.6,424.3 472.9,419.0 482.2,414.4 491.5,410.8 500.7,395.4 510.0,396.7 519.3,395.7 528.5,394.0 537.8,392.6 547.1,405.3 556.4,409.6 565.6,415.7 574.9,419.3 584.2,419.3 593.5,423.3 602.7,425.5 612.0,426.4 621.3,419.5 630.5,419.5 639.8,412.3 649.1,418.5 658.4,424.6 667.6,417.2 676.9,420.4 686.2,418.4 695.5,420.3 704.7,408.7 714.0,412.1 723.3,419.6 732.5,406.3 741.8,403.6 751.1,411.3 760.4,407.9 769.6,395.1 778.9,391.8 788.2,384.6 797.5,384.8 806.7,392.1 816.0,374.4 825.3,375.1 834.5,378.2 843.8,377.2 853.1,375.1 862.4,378.2 871.6,383.3 880.9,382.2 890.2,390.4 899.5,381.5 908.7,381.5 918.0,373.3 927.3,373.0 936.5,380.6 945.8,382.5 955.1,377.4 964.4,369.4 973.6,368.3 982.9,374.2 992.2,379.6 1001.5,373.7 1010.7,366.7 1020.0,372.7"/><polyline fill="none" stroke="rgba(120,170,158,0.15)" stroke-width="1.2" points="0.0,337.6 9.3,343.5 18.5,357.6 27.8,349.6 37.1,350.9 46.4,328.1 55.6,326.6 64.9,311.8 74.2,321.4 83.5,321.4 92.7,312.3 102.0,309.5 111.3,306.8 120.5,319.0 129.8,322.2 139.1,317.4 148.4,302.1 157.6,311.2 166.9,317.4 176.2,323.5 185.5,327.8 194.7,316.7 204.0,328.8 213.3,338.5 222.5,328.4 231.8,318.8 241.1,317.5 250.4,309.0 259.6,311.8 268.9,324.6 278.2,324.8 287.5,319.1 296.7,313.2 306.0,309.4 315.3,315.7 324.5,330.2 333.8,331.1 343.1,329.7 352.4,322.3 361.6,304.9 370.9,302.5 380.2,298.2 389.5,298.8 398.7,298.2 408.0,304.2 417.3,319.1 426.5,338.7 435.8,330.1 445.1,343.2 454.4,346.7 463.6,345.6 472.9,344.3 482.2,344.5 491.5,337.4 500.7,349.1 510.0,357.0 519.3,352.2 528.5,358.2 537.8,362.5 547.1,356.2 556.4,340.3 565.6,341.3 574.9,351.4 584.2,362.0 593.5,362.8 602.7,350.5 612.0,352.6 621.3,363.5 630.5,365.3 639.8,351.5 649.1,351.5 658.4,345.3 667.6,326.3 676.9,347.6 686.2,355.5 695.5,347.1 704.7,356.9 714.0,359.0 723.3,366.4 732.5,360.9 741.8,376.2 751.1,362.0 760.4,375.2 769.6,382.1 778.9,373.5 788.2,377.9 797.5,375.3 806.7,386.5 816.0,382.2 825.3,373.9 834.5,397.5 843.8,393.7 853.1,387.5 862.4,388.2 871.6,381.7 880.9,383.2 890.2,392.7 899.5,399.9 908.7,391.5 918.0,391.5 927.3,385.1 936.5,389.0 945.8,386.2 955.1,381.2 964.4,382.8 973.6,374.7 982.9,376.7 992.2,381.1 1001.5,384.5 1010.7,381.4 1020.0,377.8"/><polyline fill="none" stroke="rgba(120,170,158,0.15)" stroke-width="1.2" points="0.0,337.6 9.3,346.4 18.5,349.9 27.8,361.9 37.1,370.9 46.4,365.8 55.6,372.6 64.9,372.6 74.2,376.3 83.5,385.9 92.7,374.6 102.0,378.4 111.3,387.9 120.5,406.8 129.8,411.0 139.1,400.0 148.4,398.5 157.6,395.1 166.9,380.4 176.2,370.0 185.5,368.4 194.7,370.9 204.0,366.8 213.3,357.8 222.5,372.4 231.8,374.4 241.1,354.1 250.4,358.1 259.6,354.0 268.9,348.7 278.2,350.2 287.5,357.5 296.7,355.6 306.0,342.1 315.3,334.3 324.5,336.5 333.8,332.3 343.1,322.5 352.4,320.8 361.6,337.5 370.9,323.1 380.2,327.1 389.5,319.7 398.7,333.2 408.0,320.1 417.3,311.2 426.5,325.6 435.8,323.0 445.1,313.9 454.4,313.0 463.6,304.2 472.9,319.6 482.2,319.7 491.5,320.9 500.7,326.6 510.0,324.9 519.3,311.0 528.5,316.1 537.8,324.2 547.1,318.9 556.4,315.2 565.6,308.2 574.9,315.1 584.2,325.1 593.5,343.0 602.7,339.0 612.0,320.3 621.3,312.4 630.5,320.8 639.8,313.2 649.1,296.5 658.4,283.5 667.6,290.8 676.9,289.4 686.2,288.9 695.5,289.4 704.7,274.8 714.0,297.1 723.3,310.3 732.5,309.0 741.8,302.2 751.1,319.9 760.4,322.9 769.6,329.2 778.9,323.2 788.2,330.1 797.5,316.9 806.7,309.6 816.0,318.1 825.3,327.5 834.5,323.8 843.8,321.7 853.1,315.9 862.4,317.9 871.6,309.8 880.9,309.3 890.2,291.6 899.5,279.6 908.7,268.2 918.0,284.2 927.3,299.1 936.5,297.8 945.8,305.1 955.1,320.0 964.4,333.6 973.6,351.8 982.9,343.4 992.2,357.9 1001.5,363.7 1010.7,372.8 1020.0,383.8"/><polyline fill="none" stroke="rgba(120,170,158,0.15)" stroke-width="1.2" points="0.0,337.6 9.3,339.3 18.5,345.2 27.8,353.0 37.1,352.5 46.4,345.4 55.6,347.3 64.9,352.2 74.2,349.4 83.5,344.3 92.7,352.1 102.0,350.1 111.3,349.8 120.5,350.9 129.8,352.2 139.1,351.6 148.4,353.3 157.6,348.5 166.9,338.6 176.2,337.4 185.5,363.8 194.7,371.1 204.0,367.1 213.3,372.3 222.5,365.7 231.8,374.8 241.1,376.0 250.4,370.8 259.6,374.5 268.9,375.5 278.2,382.9 287.5,380.1 296.7,391.2 306.0,388.5 315.3,384.0 324.5,388.8 333.8,397.7 343.1,399.4 352.4,404.4 361.6,410.5 370.9,411.2 380.2,422.1 389.5,424.7 398.7,417.6 408.0,426.1 417.3,434.4 426.5,440.2 435.8,437.2 445.1,440.2 454.4,434.8 463.6,441.3 472.9,442.2 482.2,444.8 491.5,450.5 500.7,445.7 510.0,450.3 519.3,451.1 528.5,447.6 537.8,449.1 547.1,452.8 556.4,453.7 565.6,444.0 574.9,446.6 584.2,452.3 593.5,458.5 602.7,458.8 612.0,460.8 621.3,464.4 630.5,468.6 639.8,464.3 649.1,460.2 658.4,458.1 667.6,456.5 676.9,453.3 686.2,449.0 695.5,441.0 704.7,440.3 714.0,437.9 723.3,426.9 732.5,423.9 741.8,423.7 751.1,418.7 760.4,414.2 769.6,417.1 778.9,413.5 788.2,415.8 797.5,418.3 806.7,426.0 816.0,422.4 825.3,413.0 834.5,412.4 843.8,411.8 853.1,408.1 862.4,403.1 871.6,414.7 880.9,412.0 890.2,423.7 899.5,424.0 908.7,419.0 918.0,418.9 927.3,413.6 936.5,402.7 945.8,399.0 955.1,410.1 964.4,404.6 973.6,392.1 982.9,394.3 992.2,388.2 1001.5,385.6 1010.7,386.3 1020.0,395.8"/><polyline fill="none" stroke="rgba(120,170,158,0.15)" stroke-width="1.2" points="0.0,337.6 9.3,339.2 18.5,333.6 27.8,317.2 37.1,306.2 46.4,292.0 55.6,283.4 64.9,272.1 74.2,283.8 83.5,282.8 92.7,280.8 102.0,282.9 111.3,289.7 120.5,289.7 129.8,290.7 139.1,307.6 148.4,312.5 157.6,311.2 166.9,318.7 176.2,312.9 185.5,321.4 194.7,312.8 204.0,300.9 213.3,287.7 222.5,292.0 231.8,289.5 241.1,292.5 250.4,304.9 259.6,304.6 268.9,307.5 278.2,311.7 287.5,317.5 296.7,308.1 306.0,302.1 315.3,312.6 324.5,320.7 333.8,321.8 343.1,325.2 352.4,318.5 361.6,322.7 370.9,314.0 380.2,304.9 389.5,331.9 398.7,335.7 408.0,342.7 417.3,338.3 426.5,346.1 435.8,338.1 445.1,336.0 454.4,340.4 463.6,346.2 472.9,345.9 482.2,353.2 491.5,364.3 500.7,351.8 510.0,350.0 519.3,345.2 528.5,349.6 537.8,357.3 547.1,357.2 556.4,357.9 565.6,359.6 574.9,356.1 584.2,342.8 593.5,340.7 602.7,353.1 612.0,358.6 621.3,360.3 630.5,369.9 639.8,379.6 649.1,375.5 658.4,387.8 667.6,385.7 676.9,382.5 686.2,371.3 695.5,369.5 704.7,378.6 714.0,372.5 723.3,380.7 732.5,380.0 741.8,371.4 751.1,368.4 760.4,378.8 769.6,375.0 778.9,380.7 788.2,368.1 797.5,370.9 806.7,380.1 816.0,374.9 825.3,380.7 834.5,376.3 843.8,380.2 853.1,379.1 862.4,389.0 871.6,387.1 880.9,378.4 890.2,383.5 899.5,379.4 908.7,364.8 918.0,367.4 927.3,359.8 936.5,369.6 945.8,373.7 955.1,373.4 964.4,383.4 973.6,375.7 982.9,368.0 992.2,391.4 1001.5,388.3 1010.7,387.4 1020.0,406.1"/><polyline fill="none" stroke="rgba(120,170,158,0.15)" stroke-width="1.2" points="0.0,337.6 9.3,338.3 18.5,344.7 27.8,350.5 37.1,354.9 46.4,354.5 55.6,369.2 64.9,368.0 74.2,374.2 83.5,382.0 92.7,379.7 102.0,380.4 111.3,376.3 120.5,372.5 129.8,381.7 139.1,394.3 148.4,384.5 157.6,398.5 166.9,400.9 176.2,414.7 185.5,411.8 194.7,412.8 204.0,411.7 213.3,405.6 222.5,404.3 231.8,404.8 241.1,406.8 250.4,404.0 259.6,403.1 268.9,415.4 278.2,414.9 287.5,418.4 296.7,418.9 306.0,432.5 315.3,426.4 324.5,436.3 333.8,440.0 343.1,438.7 352.4,437.9 361.6,432.6 370.9,434.6 380.2,433.0 389.5,426.5 398.7,429.8 408.0,431.0 417.3,424.9 426.5,427.0 435.8,426.9 445.1,427.6 454.4,425.2 463.6,422.1 472.9,420.9 482.2,421.3 491.5,424.9 500.7,418.0 510.0,417.4 519.3,416.7 528.5,422.3 537.8,427.1 547.1,430.5 556.4,427.8 565.6,421.5 574.9,416.2 584.2,421.3 593.5,418.1 602.7,411.9 612.0,417.3 621.3,404.7 630.5,414.4 639.8,411.1 649.1,407.3 658.4,401.8 667.6,411.1 676.9,414.3 686.2,410.5 695.5,422.2 704.7,417.5 714.0,420.1 723.3,424.0 732.5,428.9 741.8,432.6 751.1,430.4 760.4,422.4 769.6,423.8 778.9,421.9 788.2,417.9 797.5,412.4 806.7,415.6 816.0,414.7 825.3,412.2 834.5,409.9 843.8,414.1 853.1,412.6 862.4,415.0 871.6,411.2 880.9,410.1 890.2,418.0 899.5,415.1 908.7,402.8 918.0,394.6 927.3,390.3 936.5,394.5 945.8,401.1 955.1,413.9 964.4,405.6 973.6,414.0 982.9,420.0 992.2,418.0 1001.5,405.9 1010.7,406.7 1020.0,409.4"/><polyline fill="none" stroke="rgba(120,170,158,0.15)" stroke-width="1.2" points="0.0,337.6 9.3,344.7 18.5,353.6 27.8,356.6 37.1,360.3 46.4,350.5 55.6,329.5 64.9,338.9 74.2,343.3 83.5,361.2 92.7,367.0 102.0,369.8 111.3,379.8 120.5,378.6 129.8,379.3 139.1,381.5 148.4,368.8 157.6,371.0 166.9,366.3 176.2,362.6 185.5,362.7 194.7,348.4 204.0,360.3 213.3,366.4 222.5,370.3 231.8,360.8 241.1,352.9 250.4,366.9 259.6,359.5 268.9,349.1 278.2,357.6 287.5,355.4 296.7,351.4 306.0,341.5 315.3,348.4 324.5,342.4 333.8,355.4 343.1,366.9 352.4,374.1 361.6,381.3 370.9,380.7 380.2,384.6 389.5,379.9 398.7,387.3 408.0,382.1 417.3,374.8 426.5,378.0 435.8,372.6 445.1,383.5 454.4,386.3 463.6,389.3 472.9,397.0 482.2,405.7 491.5,400.4 500.7,394.7 510.0,401.0 519.3,404.4 528.5,395.6 537.8,404.4 547.1,393.3 556.4,400.7 565.6,405.6 574.9,403.9 584.2,392.7 593.5,396.3 602.7,392.8 612.0,398.9 621.3,390.2 630.5,387.9 639.8,389.5 649.1,397.2 658.4,406.6 667.6,404.8 676.9,401.3 686.2,400.4 695.5,403.5 704.7,409.8 714.0,411.0 723.3,413.6 732.5,407.9 741.8,404.8 751.1,405.5 760.4,403.6 769.6,406.6 778.9,398.1 788.2,402.7 797.5,399.6 806.7,405.7 816.0,407.5 825.3,405.7 834.5,402.7 843.8,404.0 853.1,410.7 862.4,409.9 871.6,412.4 880.9,409.3 890.2,414.2 899.5,419.8 908.7,414.7 918.0,415.8 927.3,406.1 936.5,406.0 945.8,406.2 955.1,398.2 964.4,407.6 973.6,408.7 982.9,405.8 992.2,413.7 1001.5,411.6 1010.7,411.3 1020.0,411.5"/><polyline fill="none" stroke="rgba(120,170,158,0.15)" stroke-width="1.2" points="0.0,337.6 9.3,330.4 18.5,338.0 27.8,329.1 37.1,329.8 46.4,336.9 55.6,337.5 64.9,337.9 74.2,352.2 83.5,350.2 92.7,351.6 102.0,363.7 111.3,367.8 120.5,365.4 129.8,386.8 139.1,389.4 148.4,388.0 157.6,383.1 166.9,385.5 176.2,383.9 185.5,387.0 194.7,372.0 204.0,366.9 213.3,363.9 222.5,366.7 231.8,362.9 241.1,372.0 250.4,377.5 259.6,375.6 268.9,378.4 278.2,361.3 287.5,374.8 296.7,369.5 306.0,364.5 315.3,347.5 324.5,351.6 333.8,344.4 343.1,349.8 352.4,345.9 361.6,347.6 370.9,342.5 380.2,338.9 389.5,344.8 398.7,347.8 408.0,353.4 417.3,361.6 426.5,353.6 435.8,355.6 445.1,349.9 454.4,349.9 463.6,331.0 472.9,329.1 482.2,335.5 491.5,337.6 500.7,328.4 510.0,333.1 519.3,335.4 528.5,330.4 537.8,331.3 547.1,332.0 556.4,320.8 565.6,330.6 574.9,316.9 584.2,308.9 593.5,315.5 602.7,324.2 612.0,323.2 621.3,331.8 630.5,329.3 639.8,341.0 649.1,339.9 658.4,328.1 667.6,334.8 676.9,340.3 686.2,334.5 695.5,327.4 704.7,331.7 714.0,330.7 723.3,343.7 732.5,349.8 741.8,354.7 751.1,340.5 760.4,342.5 769.6,343.0 778.9,356.9 788.2,365.0 797.5,366.4 806.7,366.5 816.0,363.3 825.3,367.2 834.5,366.5 843.8,365.8 853.1,360.9 862.4,369.4 871.6,377.5 880.9,397.7 890.2,401.2 899.5,394.8 908.7,397.7 918.0,400.6 927.3,406.0 936.5,403.1 945.8,412.6 955.1,412.8 964.4,419.0 973.6,419.0 982.9,422.8 992.2,418.0 1001.5,420.2 1010.7,418.3 1020.0,412.2"/><polyline fill="none" stroke="rgba(120,170,158,0.15)" stroke-width="1.2" points="0.0,337.6 9.3,335.3 18.5,325.8 27.8,323.5 37.1,332.0 46.4,318.0 55.6,306.9 64.9,292.4 74.2,295.6 83.5,304.9 92.7,319.2 102.0,316.3 111.3,325.5 120.5,336.7 129.8,347.1 139.1,324.9 148.4,325.9 157.6,312.6 166.9,330.4 176.2,334.1 185.5,339.5 194.7,341.6 204.0,350.6 213.3,350.6 222.5,333.9 231.8,334.7 241.1,337.6 250.4,335.7 259.6,336.5 268.9,330.0 278.2,332.5 287.5,330.4 296.7,354.1 306.0,362.9 315.3,363.6 324.5,361.8 333.8,354.6 343.1,346.3 352.4,348.7 361.6,338.7 370.9,341.6 380.2,353.4 389.5,373.3 398.7,378.1 408.0,375.5 417.3,370.6 426.5,353.1 435.8,356.0 445.1,356.5 454.4,357.9 463.6,365.1 472.9,363.2 482.2,355.1 491.5,357.8 500.7,351.2 510.0,349.1 519.3,349.3 528.5,349.6 537.8,353.0 547.1,359.9 556.4,361.2 565.6,345.6 574.9,346.8 584.2,337.2 593.5,341.3 602.7,327.8 612.0,344.5 621.3,340.7 630.5,353.3 639.8,357.0 649.1,363.6 658.4,368.3 667.6,371.2 676.9,377.7 686.2,385.4 695.5,369.7 704.7,374.5 714.0,379.2 723.3,375.3 732.5,376.8 741.8,377.3 751.1,382.7 760.4,387.0 769.6,392.9 778.9,394.8 788.2,390.3 797.5,384.0 806.7,393.5 816.0,398.4 825.3,409.6 834.5,412.7 843.8,416.0 853.1,412.1 862.4,411.9 871.6,414.9 880.9,416.7 890.2,423.6 899.5,428.4 908.7,424.7 918.0,419.9 927.3,417.7 936.5,414.3 945.8,408.1 955.1,413.3 964.4,419.1 973.6,422.8 982.9,414.0 992.2,422.3 1001.5,429.8 1010.7,419.2 1020.0,413.4"/><polyline fill="none" stroke="rgba(120,170,158,0.15)" stroke-width="1.2" points="0.0,337.6 9.3,329.5 18.5,324.0 27.8,329.3 37.1,328.5 46.4,345.1 55.6,342.4 64.9,352.4 74.2,358.0 83.5,361.0 92.7,370.2 102.0,367.2 111.3,363.0 120.5,372.7 129.8,374.8 139.1,364.0 148.4,371.6 157.6,361.3 166.9,360.8 176.2,355.2 185.5,367.6 194.7,367.9 204.0,361.5 213.3,369.0 222.5,379.0 231.8,374.3 241.1,378.7 250.4,365.4 259.6,371.5 268.9,377.6 278.2,387.3 287.5,384.9 296.7,381.6 306.0,390.9 315.3,396.4 324.5,400.3 333.8,393.4 343.1,395.0 352.4,400.0 361.6,403.7 370.9,410.0 380.2,410.3 389.5,412.9 398.7,416.4 408.0,420.4 417.3,420.9 426.5,429.7 435.8,425.9 445.1,421.9 454.4,416.3 463.6,418.5 472.9,416.5 482.2,426.0 491.5,430.5 500.7,429.8 510.0,426.6 519.3,431.1 528.5,431.4 537.8,431.1 547.1,435.2 556.4,437.2 565.6,438.5 574.9,443.8 584.2,438.4 593.5,447.2 602.7,446.6 612.0,448.6 621.3,453.5 630.5,453.1 639.8,454.2 649.1,448.2 658.4,452.4 667.6,454.2 676.9,447.5 686.2,447.2 695.5,447.7 704.7,449.8 714.0,449.4 723.3,451.0 732.5,451.2 741.8,447.8 751.1,442.1 760.4,439.4 769.6,434.4 778.9,422.1 788.2,417.1 797.5,418.4 806.7,426.2 816.0,430.2 825.3,433.3 834.5,434.8 843.8,433.4 853.1,438.8 862.4,445.7 871.6,444.9 880.9,446.1 890.2,448.6 899.5,444.1 908.7,441.8 918.0,434.0 927.3,432.8 936.5,432.9 945.8,433.5 955.1,425.8 964.4,422.7 973.6,419.4 982.9,424.0 992.2,428.6 1001.5,425.0 1010.7,423.3 1020.0,420.6"/><polyline fill="none" stroke="rgba(120,170,158,0.15)" stroke-width="1.2" points="0.0,337.6 9.3,345.9 18.5,353.2 27.8,365.2 37.1,358.7 46.4,360.0 55.6,357.8 64.9,349.4 74.2,352.2 83.5,367.5 92.7,372.0 102.0,369.8 111.3,376.7 120.5,372.1 129.8,362.3 139.1,356.9 148.4,367.0 157.6,375.1 166.9,379.5 176.2,372.9 185.5,372.9 194.7,352.2 204.0,342.8 213.3,336.4 222.5,343.4 231.8,336.3 241.1,333.5 250.4,322.4 259.6,311.0 268.9,302.7 278.2,290.6 287.5,301.7 296.7,289.4 306.0,271.2 315.3,264.5 324.5,283.3 333.8,278.2 343.1,289.6 352.4,292.0 361.6,280.6 370.9,278.5 380.2,255.3 389.5,257.9 398.7,268.6 408.0,287.3 417.3,277.9 426.5,268.0 435.8,285.0 445.1,289.5 454.4,294.7 463.6,307.8 472.9,319.2 482.2,328.1 491.5,359.2 500.7,369.3 510.0,374.8 519.3,374.1 528.5,379.0 537.8,390.4 547.1,388.0 556.4,381.8 565.6,392.3 574.9,386.2 584.2,378.8 593.5,377.9 602.7,386.3 612.0,371.3 621.3,369.1 630.5,374.6 639.8,376.6 649.1,384.8 658.4,385.0 667.6,388.3 676.9,381.3 686.2,380.3 695.5,385.5 704.7,386.8 714.0,392.7 723.3,401.5 732.5,413.5 741.8,414.8 751.1,413.5 760.4,416.5 769.6,418.4 778.9,417.9 788.2,414.2 797.5,411.7 806.7,404.9 816.0,389.9 825.3,385.8 834.5,389.5 843.8,382.2 853.1,388.1 862.4,400.1 871.6,405.7 880.9,406.0 890.2,406.9 899.5,406.3 908.7,404.6 918.0,402.3 927.3,407.5 936.5,416.2 945.8,421.3 955.1,424.1 964.4,425.5 973.6,424.5 982.9,425.7 992.2,421.2 1001.5,421.4 1010.7,425.3 1020.0,428.2"/><polyline fill="none" stroke="rgba(120,170,158,0.15)" stroke-width="1.2" points="0.0,337.6 9.3,355.1 18.5,367.5 27.8,359.6 37.1,361.1 46.4,341.9 55.6,353.7 64.9,370.9 74.2,384.2 83.5,388.7 92.7,396.4 102.0,413.3 111.3,414.5 120.5,399.8 129.8,398.5 139.1,395.6 148.4,407.5 157.6,409.5 166.9,417.9 176.2,421.8 185.5,415.8 194.7,421.7 204.0,417.4 213.3,411.1 222.5,410.0 231.8,411.1 241.1,414.5 250.4,411.1 259.6,412.5 268.9,416.9 278.2,415.3 287.5,412.9 296.7,418.2 306.0,418.8 315.3,421.2 324.5,417.3 333.8,419.6 343.1,413.7 352.4,418.3 361.6,412.5 370.9,409.1 380.2,414.5 389.5,411.4 398.7,402.2 408.0,402.6 417.3,409.0 426.5,402.0 435.8,400.9 445.1,406.0 454.4,405.5 463.6,413.2 472.9,419.2 482.2,428.0 491.5,427.1 500.7,432.7 510.0,437.2 519.3,438.8 528.5,439.2 537.8,439.1 547.1,442.0 556.4,438.2 565.6,445.3 574.9,446.5 584.2,448.3 593.5,447.9 602.7,448.9 612.0,446.6 621.3,447.4 630.5,437.6 639.8,438.9 649.1,429.6 658.4,428.3 667.6,428.1 676.9,427.4 686.2,436.1 695.5,428.2 704.7,425.1 714.0,428.1 723.3,420.7 732.5,418.5 741.8,420.2 751.1,426.7 760.4,426.0 769.6,427.1 778.9,430.6 788.2,425.8 797.5,423.1 806.7,425.3 816.0,422.1 825.3,422.0 834.5,422.0 843.8,422.3 853.1,422.1 862.4,423.7 871.6,433.5 880.9,439.1 890.2,434.9 899.5,446.4 908.7,449.9 918.0,451.6 927.3,453.3 936.5,447.4 945.8,443.1 955.1,442.9 964.4,443.4 973.6,438.6 982.9,440.4 992.2,440.7 1001.5,437.5 1010.7,435.1 1020.0,431.9"/><polyline fill="none" stroke="rgba(120,170,158,0.15)" stroke-width="1.2" points="0.0,337.6 9.3,340.4 18.5,340.9 27.8,332.8 37.1,354.9 46.4,354.1 55.6,349.5 64.9,324.1 74.2,310.6 83.5,306.3 92.7,308.3 102.0,313.5 111.3,327.9 120.5,342.1 129.8,344.7 139.1,345.7 148.4,358.7 157.6,359.7 166.9,369.4 176.2,378.1 185.5,371.7 194.7,371.3 204.0,382.0 213.3,377.8 222.5,385.3 231.8,386.2 241.1,395.1 250.4,390.6 259.6,382.6 268.9,378.1 278.2,376.7 287.5,378.8 296.7,382.6 306.0,386.1 315.3,396.8 324.5,388.7 333.8,382.2 343.1,378.3 352.4,383.6 361.6,380.8 370.9,384.0 380.2,386.7 389.5,384.8 398.7,372.9 408.0,383.9 417.3,377.2 426.5,380.9 435.8,376.8 445.1,370.8 454.4,371.4 463.6,372.3 472.9,370.1 482.2,384.1 491.5,387.3 500.7,391.5 510.0,394.8 519.3,404.9 528.5,416.6 537.8,417.9 547.1,431.3 556.4,434.9 565.6,427.4 574.9,428.3 584.2,424.6 593.5,429.9 602.7,435.4 612.0,436.7 621.3,438.1 630.5,436.4 639.8,433.1 649.1,433.9 658.4,432.0 667.6,431.0 676.9,427.6 686.2,424.1 695.5,433.2 704.7,429.3 714.0,429.8 723.3,429.1 732.5,431.9 741.8,434.4 751.1,439.0 760.4,437.1 769.6,435.3 778.9,434.9 788.2,435.9 797.5,431.9 806.7,428.8 816.0,430.7 825.3,427.9 834.5,426.1 843.8,432.5 853.1,431.7 862.4,431.0 871.6,433.4 880.9,431.9 890.2,431.2 899.5,431.2 908.7,424.0 918.0,429.0 927.3,421.4 936.5,429.3 945.8,438.5 955.1,433.2 964.4,426.5 973.6,426.3 982.9,432.1 992.2,431.2 1001.5,437.5 1010.7,439.4 1020.0,438.7"/><polyline fill="none" stroke="rgba(120,170,158,0.15)" stroke-width="1.2" points="0.0,337.6 9.3,338.0 18.5,359.5 27.8,363.3 37.1,362.9 46.4,372.5 55.6,385.2 64.9,391.5 74.2,394.3 83.5,389.9 92.7,392.6 102.0,393.6 111.3,394.2 120.5,384.2 129.8,380.9 139.1,380.2 148.4,381.4 157.6,373.2 166.9,367.0 176.2,382.6 185.5,362.5 194.7,367.3 204.0,361.4 213.3,362.1 222.5,367.0 231.8,368.0 241.1,375.5 250.4,375.2 259.6,358.9 268.9,356.3 278.2,366.7 287.5,365.0 296.7,358.1 306.0,354.3 315.3,357.2 324.5,355.9 333.8,359.5 343.1,361.0 352.4,348.7 361.6,348.9 370.9,351.8 380.2,353.5 389.5,366.5 398.7,351.9 408.0,356.2 417.3,353.8 426.5,351.6 435.8,349.2 445.1,347.9 454.4,341.8 463.6,345.2 472.9,351.8 482.2,357.9 491.5,366.3 500.7,370.1 510.0,361.6 519.3,368.3 528.5,370.4 537.8,374.8 547.1,389.4 556.4,393.4 565.6,393.4 574.9,386.8 584.2,389.2 593.5,394.4 602.7,385.2 612.0,382.1 621.3,384.7 630.5,399.9 639.8,403.3 649.1,410.9 658.4,404.5 667.6,410.1 676.9,414.7 686.2,414.3 695.5,406.9 704.7,411.2 714.0,412.4 723.3,414.3 732.5,418.0 741.8,418.7 751.1,417.9 760.4,409.9 769.6,408.8 778.9,411.4 788.2,420.8 797.5,424.0 806.7,420.3 816.0,417.3 825.3,418.5 834.5,428.2 843.8,426.9 853.1,427.8 862.4,426.9 871.6,419.9 880.9,421.9 890.2,433.2 899.5,438.5 908.7,434.0 918.0,445.2 927.3,449.1 936.5,449.1 945.8,448.6 955.1,449.2 964.4,444.8 973.6,439.5 982.9,437.6 992.2,439.0 1001.5,449.2 1010.7,444.7 1020.0,439.1"/><polyline fill="none" stroke="rgba(120,170,158,0.15)" stroke-width="1.2" points="0.0,337.6 9.3,342.7 18.5,345.4 27.8,354.9 37.1,347.6 46.4,345.8 55.6,349.7 64.9,356.9 74.2,354.4 83.5,346.2 92.7,359.2 102.0,360.4 111.3,362.8 120.5,359.2 129.8,354.1 139.1,353.6 148.4,337.4 157.6,337.6 166.9,338.0 176.2,338.9 185.5,357.9 194.7,356.2 204.0,368.8 213.3,370.5 222.5,382.1 231.8,396.2 241.1,403.9 250.4,402.0 259.6,405.3 268.9,401.4 278.2,403.6 287.5,404.0 296.7,406.0 306.0,398.0 315.3,383.6 324.5,383.7 333.8,376.0 343.1,383.2 352.4,380.3 361.6,377.4 370.9,373.7 380.2,369.7 389.5,349.9 398.7,353.1 408.0,355.2 417.3,369.8 426.5,383.4 435.8,379.9 445.1,394.1 454.4,384.9 463.6,385.1 472.9,387.6 482.2,384.7 491.5,381.6 500.7,382.7 510.0,384.9 519.3,386.9 528.5,395.2 537.8,397.7 547.1,408.0 556.4,410.6 565.6,412.3 574.9,412.8 584.2,418.7 593.5,415.4 602.7,425.8 612.0,428.8 621.3,424.1 630.5,417.2 639.8,421.5 649.1,423.2 658.4,422.0 667.6,425.5 676.9,434.2 686.2,428.7 695.5,428.6 704.7,427.6 714.0,424.5 723.3,428.3 732.5,427.3 741.8,442.6 751.1,444.0 760.4,439.0 769.6,445.7 778.9,446.7 788.2,452.6 797.5,460.3 806.7,462.5 816.0,462.5 825.3,461.7 834.5,461.5 843.8,464.1 853.1,465.7 862.4,466.0 871.6,464.7 880.9,466.9 890.2,467.0 899.5,466.7 908.7,465.1 918.0,467.7 927.3,467.9 936.5,470.7 945.8,472.3 955.1,468.3 964.4,463.1 973.6,458.1 982.9,458.7 992.2,461.9 1001.5,448.6 1010.7,443.4 1020.0,446.6"/><polyline fill="none" stroke="rgba(120,170,158,0.15)" stroke-width="1.2" points="0.0,337.6 9.3,325.6 18.5,320.9 27.8,316.2 37.1,316.5 46.4,326.2 55.6,309.1 64.9,309.6 74.2,316.1 83.5,307.0 92.7,326.7 102.0,322.7 111.3,312.4 120.5,330.6 129.8,343.5 139.1,344.5 148.4,346.1 157.6,356.2 166.9,369.4 176.2,372.0 185.5,376.0 194.7,384.0 204.0,378.4 213.3,376.5 222.5,379.6 231.8,391.3 241.1,411.2 250.4,408.0 259.6,413.5 268.9,413.2 278.2,416.0 287.5,400.1 296.7,407.2 306.0,404.0 315.3,402.5 324.5,401.4 333.8,404.0 343.1,405.4 352.4,406.0 361.6,404.6 370.9,410.7 380.2,411.8 389.5,411.8 398.7,403.9 408.0,395.3 417.3,385.8 426.5,388.9 435.8,389.2 445.1,392.4 454.4,392.6 463.6,402.9 472.9,406.3 482.2,411.3 491.5,415.4 500.7,418.4 510.0,421.8 519.3,436.4 528.5,429.7 537.8,431.7 547.1,428.7 556.4,435.9 565.6,439.7 574.9,446.5 584.2,444.5 593.5,442.3 602.7,446.8 612.0,453.2 621.3,450.6 630.5,448.0 639.8,444.8 649.1,443.7 658.4,451.3 667.6,452.3 676.9,450.4 686.2,452.2 695.5,454.1 704.7,458.9 714.0,457.5 723.3,457.6 732.5,457.4 741.8,454.8 751.1,451.6 760.4,451.9 769.6,455.0 778.9,455.8 788.2,456.1 797.5,462.3 806.7,459.0 816.0,457.9 825.3,458.1 834.5,461.1 843.8,460.6 853.1,461.4 862.4,463.5 871.6,459.5 880.9,462.3 890.2,458.2 899.5,462.4 908.7,466.1 918.0,469.8 927.3,468.0 936.5,467.8 945.8,471.3 955.1,464.1 964.4,465.4 973.6,464.4 982.9,465.5 992.2,460.4 1001.5,458.6 1010.7,457.5 1020.0,452.6"/><polyline fill="none" stroke="rgba(120,170,158,0.15)" stroke-width="1.2" points="0.0,337.6 9.3,339.2 18.5,358.3 27.8,360.4 37.1,362.6 46.4,365.2 55.6,356.5 64.9,362.6 74.2,364.1 83.5,370.6 92.7,358.5 102.0,361.2 111.3,355.8 120.5,347.1 129.8,344.0 139.1,355.9 148.4,358.7 157.6,363.9 166.9,355.1 176.2,377.1 185.5,375.8 194.7,372.6 204.0,379.4 213.3,392.2 222.5,386.7 231.8,397.1 241.1,394.5 250.4,381.9 259.6,369.4 268.9,368.8 278.2,370.4 287.5,375.2 296.7,390.3 306.0,391.8 315.3,394.0 324.5,398.5 333.8,390.1 343.1,390.3 352.4,395.4 361.6,397.9 370.9,392.7 380.2,381.9 389.5,378.5 398.7,379.4 408.0,382.9 417.3,381.0 426.5,369.5 435.8,378.5 445.1,376.0 454.4,376.5 463.6,391.2 472.9,397.3 482.2,380.7 491.5,386.7 500.7,391.4 510.0,382.1 519.3,387.8 528.5,399.5 537.8,406.8 547.1,399.1 556.4,403.7 565.6,409.6 574.9,408.9 584.2,405.9 593.5,410.6 602.7,405.1 612.0,400.3 621.3,398.3 630.5,400.7 639.8,402.6 649.1,408.7 658.4,397.3 667.6,402.8 676.9,395.6 686.2,409.6 695.5,418.5 704.7,421.0 714.0,416.3 723.3,414.8 732.5,424.6 741.8,422.1 751.1,420.0 760.4,418.7 769.6,423.0 778.9,427.8 788.2,429.8 797.5,444.4 806.7,442.3 816.0,451.6 825.3,454.4 834.5,451.5 843.8,452.6 853.1,450.5 862.4,444.7 871.6,450.5 880.9,451.1 890.2,452.5 899.5,447.4 908.7,450.1 918.0,462.4 927.3,464.5 936.5,464.6 945.8,470.4 955.1,469.1 964.4,466.7 973.6,463.0 982.9,464.2 992.2,466.5 1001.5,476.2 1010.7,479.9 1020.0,480.0"/></svg>